<svg xmlns="http://www.w3.org/2000/svg" xmlns:xlink="http://www.w3.org/1999/xlink" width="500" zoomAndPan="magnify" viewBox="0 0 375 374.999991" height="500" preserveAspectRatio="xMidYMid meet" version="1.2"><g id="693fadb6e1"><path style=" stroke:none;fill-rule:nonzero;fill:#f7f7f7;fill-opacity:1;" d="M 375 187.5 C 375 209.425781 371.242188 230.4375 364.351562 250 L 107.074219 250 L 107.074219 125 L 364.351562 125 C 371.242188 144.5625 375 165.574219 375 187.5 Z M 375 187.5 "/><path style=" stroke:none;fill-rule:nonzero;fill:#000000;fill-opacity:1;" d="M 364.351562 250 C 359.339844 264.214844 352.640625 277.660156 344.496094 290.09375 C 311.007812 341.21875 253.230469 375 187.5 375 C 158.730469 375 131.457031 368.496094 107.074219 356.929688 L 107.074219 250 Z M 364.351562 250 "/><path style=" stroke:none;fill-rule:nonzero;fill:#006f2e;fill-opacity:1;" d="M 364.351562 125 L 107.074219 125 L 107.074219 18.070312 C 131.457031 6.503906 158.730469 0 187.5 0 C 253.179688 0 311.007812 33.78125 344.496094 84.90625 C 352.59375 97.339844 359.289062 110.785156 364.351562 125 Z M 364.351562 125 "/><path style=" stroke:none;fill-rule:nonzero;fill:#f70000;fill-opacity:1;" d="M 107.074219 18.070312 L 107.074219 356.929688 C 87.796875 347.773438 70.304688 335.390625 55.320312 320.5 C 46.066406 311.296875 37.730469 301.078125 30.503906 290.09375 C 11.226562 260.601562 0 225.375 0 187.5 C 0 149.625 11.226562 114.398438 30.503906 84.90625 C 37.683594 73.921875 46.019531 63.703125 55.320312 54.453125 C 70.304688 39.609375 87.796875 27.226562 107.074219 18.070312 Z M 107.074219 18.070312 "/></g></svg>