<?xml version="1.0" encoding="UTF-8" standalone="no"?>
<!-- Created with Inkscape (http://www.inkscape.org/) -->

<svg
   width="152.29491mm"
   height="116.88955mm"
   viewBox="0 0 152.29491 116.88955"
   version="1.1"
   id="svg1"
   xml:space="preserve"
   xmlns:inkscape="http://www.inkscape.org/namespaces/inkscape"
   xmlns:sodipodi="http://sodipodi.sourceforge.net/DTD/sodipodi-0.dtd"
   xmlns="http://www.w3.org/2000/svg"
   xmlns:svg="http://www.w3.org/2000/svg"><sodipodi:namedview
     id="namedview1"
     pagecolor="#505050"
     bordercolor="#eeeeee"
     borderopacity="1"
     inkscape:showpageshadow="0"
     inkscape:pageopacity="0"
     inkscape:pagecheckerboard="0"
     inkscape:deskcolor="#505050"
     inkscape:document-units="mm"><inkscape:page
       x="0"
       y="-2.5291477e-14"
       width="152.29491"
       height="116.88956"
       id="page2"
       margin="0"
       bleed="0" /></sodipodi:namedview><defs
     id="defs1" /><g
     inkscape:label="Layer 1"
     inkscape:groupmode="layer"
     id="layer1"
     transform="translate(-29.406439,-80.538494)"><path
       style="fill:#b1b1b1;stroke:none"
       d="m 164.90331,178.34614 0.0882,0.17638 z"
       id="path20" /><path
       style="fill:#b1b1b1;stroke:none"
       d="m 154.14362,122.43086 0.17638,0.0882 -0.17638,-0.0882"
       id="path13" /><path
       style="fill:#b1b1b1;stroke:none"
       d="m 44.694311,80.538496 -0.26458,0.264584 0.26458,-0.264584"
       id="path5" /><g
       id="g137"
       transform="matrix(0.01670536,0,0,0.01670536,123.71162,127.98327)"
       style="fill:#ff0000;fill-opacity:1"><path
         style="fill:#ff0000;fill-opacity:1"
         d="m -22.829706,116.74466 c -0.0622,-0.10914 -0.19372,-0.64492 -0.29218,-1.19062 l -0.17904,-0.99219 h 2.03335 c 2.24627,0 2.72896,0.29081 2.74472,1.65365 l 0.008,0.7276 h -2.10105 c -1.15558,0 -2.15197,-0.0893 -2.21421,-0.19844 z"
         id="path137" /><path
         style="fill:#ff0000;fill-opacity:1"
         d="m -125.7857,131.91063 c -1.63135,-0.44788 -2.00167,-0.94697 -2.00167,-2.69775 0,-1.81337 -0.36377,-2.70783 -1.47318,-3.6223 -0.77281,-0.63701 -0.9072,-0.91313 -0.90226,-1.85372 0.003,-0.60787 0.22322,-1.58147 0.48893,-2.16355 0.77006,-1.68692 2.78202,-4.39946 4.39401,-5.92401 1.39194,-1.31644 1.54926,-1.39481 2.46621,-1.22862 2.24869,0.40755 5.73669,2.54382 6.02427,3.68965 0.10908,0.4346 -0.0207,0.88924 -0.40066,1.4031 -0.5346,0.72309 -0.55188,0.93331 -0.35415,4.30916 0.2041,3.48448 0.21977,3.55178 0.86238,3.70285 1.30721,0.3073 1.40335,3.29809 0.13278,4.1306 -0.89377,0.58562 -7.37973,0.76439 -9.23666,0.25459 z"
         id="path136" /><path
         style="fill:#ff0000;fill-opacity:1"
         d="m -53.887666,97.363926 c 0.76504,-1.02474 1.15088,-1.32291 1.71187,-1.32291 1.002,0 2.4962,-0.45575 2.72896,-0.83236 0.10635,-0.17207 0.13081,-0.69832 0.0543,-1.16944 -0.11559,-0.71231 -0.0228,-0.93269 0.55062,-1.30845 0.55356,-0.3627 0.65696,-0.5897 0.52403,-1.15049 -0.3147,-1.32768 -0.79166,-1.59749 -2.97024,-1.68026 l -2.01908,-0.0767 -0.53037,-1.10364 c -0.29171,-0.607 -0.60893,-1.18219 -0.70494,-1.27821 -0.37367,-0.37366 -1.22947,0.43562 -1.75669,1.66118 -0.66416,1.54388 -1.63902,2.14508 -2.5306,1.56063 -0.30955,-0.20291 -1.20147,-1.45718 -1.98204,-2.78726 -0.78058,-1.33008 -1.51014,-2.41833 -1.62125,-2.41833 -0.11111,0 -0.35081,0.17928 -0.53265,0.39839 -0.2695,0.32473 -0.15664,0.99739 0.61043,3.63802 0.95569,3.29 1.1579,5.29496 0.66558,6.59963 -0.45658,1.20997 -0.13971,1.34879 1.0732,0.47017 1.45148,-1.05145 2.03161,-0.92932 3.83747,0.80788 0.74536,0.71702 1.47861,1.30623 1.62945,1.30937 0.15084,0.003 0.71869,-0.5896 1.2619,-1.31721 z"
         id="path135" /><path
         style="fill:#ff0000;fill-opacity:1"
         d="m -74.597686,236.46844 c -0.76726,-1.81267 -2.10816,-5.87876 -3.04247,-9.22581 -1.67027,-5.98353 -1.67116,-5.98573 -4.63989,-11.50938 -2.57676,-4.79433 -3.40474,-6.06686 -6.26313,-9.62574 l -3.29383,-4.10105 -5.01553,-3.43958 -5.015534,-3.43958 -1.73223,-3.03848 c -1.59037,-2.78966 -1.80713,-3.36383 -2.64689,-7.01146 -0.50306,-2.18514 -0.93237,-4.21111 -0.95402,-4.50215 -0.0216,-0.29104 1.10226,-2.37463 2.49756,-4.63021 l 2.53692,-4.10104 0.33014,-3.175 c 0.31535,-3.0328 0.38854,-3.28164 1.6342,-5.55625 0.717234,-1.30968 1.784594,-3.12757 2.371924,-4.03974 l 1.06785,-1.6585 -0.92015,-1.38585 -0.92015,-1.38584 -0.14036,-8.10125 -0.14037,-8.10124 -1.849964,-2.34816 c -1.8814,-2.38806 -4.39761,-6.83035 -5.90097,-10.41796 -0.45734,-1.09141 -1.04523,-3.23216 -1.30643,-4.75722 -0.43309,-2.5288 -0.44294,-3.08769 -0.11194,-6.35 0.19962,-1.96744 0.36466,-5.12497 0.36677,-7.01674 l 0.004,-3.43958 -0.75075,-0.427 c -0.93916,-0.53416 -1.43567,-2.19649 -1.06116,-3.55285 0.19356,-0.700994 0.63076,-1.164994 1.89336,-2.009384 2.16941,-1.45083 2.83231,-2.07244 2.83231,-2.65585 0,-0.9728 -0.79792,-0.5596 -3.72376,1.92832 -1.80211,1.53237 -2.50009,1.89766 -3.20094,1.67522 -0.50799,-0.16123 -0.54151,-0.31289 -0.398,-1.80059 0.14472,-1.50015 1.31974,-5.45484 1.99644,-6.71926 0.15902,-0.29714 1.06907,-1.16087 2.02232,-1.9194 1.72679,-1.37405 1.73846,-1.37847 3.16494,-1.20025 l 1.43176,0.17889 0.17788,-1.57226 c 0.0978,-0.86474 0.2654,-1.71387 0.37237,-1.88695 0.13839,-0.22392 4.350914,-1.51189 5.222864,-1.59688 0.0299,-0.003 -0.12773,0.50071 -0.35035,1.11918 -0.24642,0.68456 -0.34885,1.55318 -0.26184,2.22029 l 0.14293,1.09581 -3.166014,1.89311 c -4.02814,2.40863 -4.23909,3.12067 -0.6722,2.26892 0.86228,-0.20591 1.66595,-0.31371 1.78594,-0.23955 0.11999,0.0742 0.21979,0.45523 0.22178,0.84682 0.009,1.84309 -0.0309,1.82481 3.253724,1.47681 1.62821,-0.1725 4.70172,-0.39904 6.83003,-0.50342 l 3.86965,-0.18978 1.81889,-1.45624 c 3.09578,-2.47853 2.52603,-2.37085 6.23388,-1.1782 1.79186,0.57636 3.8999,1.20725 4.68453,1.40199 l 1.42661,0.35408 1.28245,-1.44871 c 1.24146,-1.40239 1.28255,-1.50165 1.28537,-3.10505 l 0.003,-1.65635 1.44108,0.95682 1.44108,0.95682 0.79847,-0.56856 0.79847,-0.56856 -0.81519,-1.32485 c -0.44835,-0.72867 -0.77154,-1.35787 -0.71819,-1.39823 0.0533,-0.0404 0.48698,-0.22869 0.96364,-0.41852 0.59137,-0.23551 0.82885,-0.48113 0.74764,-0.77327 -0.0655,-0.23546 -0.26589,-1.2898 -0.4454,-2.34297 l -0.32639,-1.91484 -1.40266,-0.52481 c -0.77146,-0.28864 -1.70517,-0.60072 -2.0749,-0.69352 -0.82833,-0.2079 -0.82867,-0.24593 -0.0108,-1.21794 0.77494,-0.92097 0.80893,-1.21095 0.23759,-2.02665 -0.23312,-0.33284 -0.38195,-0.64328 -0.33073,-0.68988 0.0512,-0.0466 0.85221,0.0395 1.77996,0.19124 1.68617,0.27587 1.68722,0.27659 2.69663,1.87305 l 1.00981,1.59707 1.31298,-0.0697 c 0.9178,-0.0487 1.6386,0.0964 2.3948,0.48221 l 1.08181,0.5519 1.03473,-0.6532 c 0.84441,-0.53305 1.06875,-0.85456 1.21969,-1.74798 0.14268,-0.84451 0.28458,-1.06663 0.62072,-0.97164 3.97926,1.12446 3.97754,1.12423 4.38857,0.57419 0.60882,-0.81474 1.32778,-2.20672 1.19496,-2.31357 -0.0664,-0.0534 -1.70141,-1.19897 -3.6334,-2.54572 l -3.51272,-2.44863 0.84883,-1.49962 c 1.87666,-3.31547 2.06325,-3.54407 2.75551,-3.37575 2.16974,0.52756 2.17097,0.52731 1.10599,-0.22251 -1.68844,-1.18877 -0.99684,-2.08612 0.7276,-0.94407 0.52827,0.34986 1.24178,0.52626 2.13331,0.52742 1.13932,10e-4 1.4514,-0.11498 2.0877,-0.77914 l 0.74813,-0.78088 1.12162,0.77169 c 1.15508,0.79471 1.44987,1.23492 1.44987,2.16506 0,0.51301 -0.0307,0.51786 -0.66146,0.10455 -0.65584,-0.42972 -0.66146,-0.42653 -0.66146,0.37576 0,0.44504 0.1867,1.0941 0.41489,1.44236 0.38656,0.58996 0.37871,0.65256 -0.1149,0.91673 -0.7931,0.42446 -1.14718,0.35203 -2.01978,-0.41315 -1.01366,-0.88887 -2.96342,-1.77161 -3.47742,-1.57437 -0.23096,0.0886 -0.36084,0.40075 -0.31145,0.74852 0.0707,0.49788 0.33971,0.64683 1.62725,0.90101 1.60107,0.31607 2.82308,1.15731 2.82308,1.94343 0,0.23975 -0.35388,0.9036 -0.78639,1.47523 -0.43252,0.57163 -0.78971,1.19943 -0.79375,1.39512 -0.004,0.19569 -0.25775,1.18015 -0.56378,2.18767 -0.52372,1.72423 -0.53058,1.87129 -0.11686,2.5027 0.52165,0.79615 1.40008,1.17586 2.11392,0.91377 0.28303,-0.10392 0.9649,-0.0746 1.51527,0.0651 0.55037,0.13969 1.18201,0.18441 1.40363,0.0994 0.52984,-0.20332 0.5179,-1.44667 -0.0327,-3.40912 -0.49339,-1.75842 -0.38433,-1.99692 1.01706,-2.22433 0.63371,-0.10284 1.31915,0.0197 2.13882,0.38224 1.09363,0.48376 1.24906,0.6694 1.66485,1.98845 l 0.45861,1.45487 -0.98809,1.34606 -0.9881,1.34605 -1.13816,-0.667 c -0.99535,-0.58332 -1.15864,-0.61362 -1.30143,-0.24151 -0.23217,0.60501 -0.25906,0.56264 0.82418,1.29872 0.73998,0.50283 1.32776,0.671 2.34527,0.671 1.29067,0 1.39491,0.0536 2.10846,1.0832 l 0.75066,1.0832 -0.64853,0.51625 c -0.80249,0.63881 -1.41724,0.89449 -2.72623,1.13386 l -1.01936,0.18641 0.17645,-1.28295 c 0.17593,-1.27918 0.17309,-1.28537 -0.96501,-2.10263 -0.98592,-0.70797 -2.90737,-1.67568 -3.32718,-1.67568 -0.0752,0 0.39913,0.50602 1.05406,1.12448 1.13326,1.07018 1.1986,1.21248 1.35309,2.94686 0.22036,2.47378 0.67409,3.12915 2.0924,3.02227 l 1.09005,-0.0821 0.0239,1.27782 c 0.0262,1.40244 0.10578,1.37004 -2.0407,0.8313 l -0.65903,-0.1654 0.29744,1.6102 0.29743,1.6102 2.08145,1.33128 c 1.99618,1.27675 2.07476,1.36472 1.91823,2.14737 -0.0898,0.44884 -0.16322,1.03932 -0.16322,1.31217 0,0.42358 -0.20801,0.4961 -1.42311,0.4961 -1.33754,0 -1.44324,0.0486 -1.75799,0.80847 -0.49979,1.20661 -0.0965,1.36839 1.86282,0.74728 1.42041,-0.45027 2.14711,-0.51876 4.2287,-0.39854 1.38245,0.0798 2.82924,0.22096 3.21511,0.3136 0.55346,0.13287 0.73682,0.0573 0.8686,-0.35786 0.107,-0.33714 0.47294,-0.57289 1.01822,-0.65597 0.46816,-0.0713 0.87045,-0.11403 0.89398,-0.0949 0.0235,0.0191 -0.0175,0.34857 -0.0912,0.73209 -0.0981,0.51053 -0.41077,0.80604 -1.16726,1.1032 -0.56831,0.22323 -1.03256,0.50476 -1.03167,0.6256 8.8e-4,0.12085 1.36114,2.779574 3.02279,5.908274 2.5086,4.72341 3.10987,5.67525 3.54391,5.61023 0.45095,-0.0676 0.53542,0.10173 0.61523,1.23294 l 0.0925,1.31125 -1.65866,0.81758 c -0.91226,0.44967 -1.70577,0.81758 -1.76336,0.81758 -0.0576,0 -0.14463,-0.77416 -0.19343,-1.72035 -0.0643,-1.24741 0.002,-1.72019 0.24201,-1.71979 0.48171,8.1e-4 0.41988,-0.18567 -0.47444,-1.43099 -0.57095,-0.79504 -0.79054,-1.38487 -0.75487,-2.02763 0.0343,-0.6184 -0.38669,-1.83132 -1.32484,-3.81686 -2.00021,-4.233364 -1.76888,-3.996814 -3.7537,-3.838464 l -1.68335,0.13429 -0.20302,1.190624 c -0.145,0.85035 -0.0809,1.55899 0.22415,2.47952 0.37085,1.11897 0.38314,1.54628 0.0932,3.24115 l -0.33394,1.95225 h -1.01137 c -0.87158,0 -1.10411,-0.13648 -1.68236,-0.98746 -0.36905,-0.5431 -0.671,-1.20177 -0.671,-1.46371 0,-0.26193 -0.17252,-0.88914 -0.38338,-1.39379 -0.29541,-0.70703 -0.53823,-0.91754 -1.05833,-0.91754 -0.37123,0 -0.67363,0.14883 -0.67201,0.33073 0.002,0.1819 0.35749,1.46182 0.7908,2.84427 0.43332,1.38245 0.7877,2.6326 0.78752,2.77813 -3.1e-4,0.26194 -1.83045,1.57184 -1.96718,1.40799 -0.039,-0.0468 -0.57833,-1.63289 -1.19842,-3.52466 -0.62008,-1.89177 -1.54026,-4.23602 -2.04483,-5.20944 -0.72193,-1.39275 -0.89813,-2.012894 -0.82693,-2.910424 l 0.0905,-1.14056 -2.77813,-0.15385 -2.77812,-0.15385 -1.64824,1.74135 c -1.06003,1.119914 -1.81541,2.203024 -2.11667,3.035014 -0.35294,0.97471 -0.7959,1.542 -1.79665,2.30096 -1.23906,0.93968 -1.39893,0.99091 -2.38125,0.76318 -1.75855,-0.4077 -2.16765,-0.33102 -2.36184,0.44271 l -0.17555,0.69946 -2.50655,-0.14954 c -2.32989,-0.13882 -2.57336,-0.20777 -3.44894,-0.97654 -0.99583,-0.87435 -1.21252,-0.89073 -4.07412,-0.30803 l -0.92175,0.18769 -0.0785,1.94425 -0.0785,1.94424 1.92692,2.94053 c 1.06613,1.62695 2.99868,4.06336 4.32613,5.45406 1.31957,1.38245 2.55645,2.9015 2.74863,3.37567 0.25252,0.62305 0.683,1.00968 1.55237,1.39424 1.23023,0.54419 4.33747,1.35349 4.515,1.17596 0.0542,-0.0542 -0.52943,-0.96194 -1.29695,-2.0172 -0.76753,-1.05525 -1.85418,-2.91144 -2.41478,-4.12486 l -1.01928,-2.20622 1.02376,-1.51077 c 0.56308,-0.83093 1.28107,-2.01679 1.59555,-2.63525 l 0.57179,-1.12448 h 2.34146 2.34147 l 0.13675,1.21327 c 0.10122,0.89807 0.35964,1.44324 0.99465,2.09841 0.8415,0.8682 0.8914,0.88233 2.60964,0.73903 1.28371,-0.10707 2.02399,-0.0321 2.77075,0.28055 0.9931,0.4158 1.01578,0.4553 0.89206,1.55342 -0.0698,0.61973 -0.21175,1.38284 -0.3154,1.6958 -0.1587,0.47923 -0.0633,0.5965 0.60453,0.74318 0.54421,0.11953 0.84381,0.37677 0.95506,0.82004 0.24134,0.96156 0.68119,0.78066 0.68119,-0.28016 0,-0.50932 0.0953,-0.92604 0.21167,-0.92604 0.36123,0 0.84667,0.61362 0.84667,1.07024 0,0.23938 0.23012,0.64351 0.51139,0.89805 0.49405,0.44711 1.08187,0.44248 2.72975,-0.0215 0.35054,-0.0987 0.46302,0.0273 0.46302,0.51843 0,0.58774 -0.13651,0.66586 -1.45032,0.83001 -1.11293,0.13905 -1.58825,0.0846 -2.04324,-0.2341 -0.61572,-0.43126 -1.99928,-0.55097 -2.45956,-0.21281 -0.14552,0.10691 -0.49243,0.64223 -0.7709,1.18959 -0.50518,0.99299 -0.50503,0.99656 0.0661,1.60455 0.89929,0.95726 0.72036,1.3798 -0.85511,2.01923 -1.18122,0.47943 -1.51767,0.52313 -1.94977,0.25328 -0.4463,-0.27872 -0.68025,-0.21425 -1.60949,0.44352 -1.17188,0.82951 -1.29298,1.07875 -0.74548,1.53422 0.3329,0.27692 2.1777,5.94059 1.98557,6.09582 -0.25556,0.20648 -1.8948,0.65874 -2.04691,0.56473 -0.0971,-0.06 -1.17522,-2.20583 -2.39575,-4.76844 -1.45571,-3.05639 -2.29334,-4.54238 -2.43479,-4.31945 -0.52627,0.82941 -0.15259,1.98877 1.66554,5.16735 1.59835,2.79435 2.87323,5.76962 2.87323,6.70544 0,0.13255 -0.6432,0.24101 -1.42933,0.24101 -1.33427,0 -1.44684,0.0503 -1.69277,0.75571 -0.36086,1.03518 -0.15915,1.24774 1.62643,1.71395 1.87492,0.48954 2.04942,0.62886 1.06387,0.84934 -1.4924,0.33387 -1.71263,0.43417 -1.61256,0.73439 0.0558,0.16737 0.47907,0.41262 0.94061,0.54499 l 0.83917,0.24066 0.004,1.87996 c 0.002,1.03397 0.0721,2.13513 0.15576,2.447 0.12432,0.46335 -0.009,0.62234 -0.73122,0.86936 -1.30819,0.44769 -2.40071,2.0102 -2.22852,3.18719 0.075,0.51296 0.27243,2.24885 0.43864,3.85752 l 0.3022,2.92487 1.41509,0.90806 1.41508,0.90806 -0.69245,1.18157 c -0.40421,0.68974 -0.99098,2.50842 -1.40963,4.36916 l -0.71718,3.18758 1.1566,1.19971 c 0.63613,0.65985 1.1566,1.28323 1.1566,1.38531 0,0.10208 -0.4787,0.50238 -1.06377,0.88957 -0.83232,0.5508 -1.28264,1.17103 -2.06977,2.85071 l -1.006,2.14675 -0.45802,7.53793 c -0.42701,7.0276 -0.54701,7.97626 -1.77243,14.01217 l -1.31442,6.47424 0.0181,9.57183 0.018,9.57183 -2.62438,5.42279 c -1.76765,3.65249 -2.78656,5.46904 -3.12116,5.56448 -0.27323,0.0779 -1.09209,0.21885 -1.81969,0.31315 -1.30795,0.16951 -1.34375,0.19965 -3.16374,2.66497 -1.01245,1.37143 -1.86275,2.49352 -1.88955,2.49352 -0.0268,0 -0.66607,-1.45852 -1.4206,-3.24115 z"
         id="path134" /></g><path
       style="fill:#800000;fill-opacity:1;stroke:none;stroke-width:0.375119"
       d="m 161.53575,187.34127 0.31216,-0.0802 c -0.12465,-0.0983 -0.29325,-0.1083 -0.31216,0.0802"
       id="path148" /><path
       style="fill:#800000;fill-opacity:1;stroke:none;stroke-width:0.375119"
       d="m 162.71454,186.85234 -0.47234,0.26498 c 0.1244,0.28677 0.57153,0.15306 0.7188,-0.0514 l -0.24646,-0.21356"
       id="path147" /><path
       style="fill:#800000;fill-opacity:1;stroke:none;stroke-width:0.375119"
       d="m 176.05419,170.52404 c 0.11691,-0.0516 0.13694,-0.1428 0.22653,-0.22275 0.16936,-0.15117 0.41179,-0.27514 0.47694,-0.52114 0.0792,-0.29904 0.0443,-0.58402 0.23351,-0.85466 0.1335,-0.19101 0.51703,-0.32733 0.56422,-0.56106 0.0315,-0.15608 -0.15228,-0.31733 -0.21434,-0.44662 -0.0714,-0.14873 -0.0375,-0.27683 -0.0249,-0.43169 0.005,-0.0654 -0.006,-0.15749 -0.0847,-0.17456 -0.0916,-0.0198 -0.12335,0.0986 -0.14385,0.16212 -0.0861,0.2671 -0.24371,0.47105 -0.36366,0.71945 -0.0817,0.16916 -0.022,0.37141 -0.12028,0.52821 -0.0987,0.15734 -0.27217,0.12194 -0.38136,0.24487 -0.34706,0.39074 -0.45083,1.083 -0.16842,1.55785"
       id="path146" /><path
       style="fill:#800000;fill-opacity:1;stroke:none;stroke-width:0.375119"
       d="m 139.51675,180.07322 c 0.0659,0.2606 0.23692,0.51568 0.35968,0.75456 0.24287,0.47256 0.48326,0.94686 0.72047,1.4223 0.82364,1.65081 1.67074,3.2901 2.50414,4.936 0.29229,0.57722 0.58607,1.15393 0.88353,1.72852 0.12105,0.23387 0.35374,0.54628 0.35522,0.81266 0.11856,0.0204 0.27197,0.008 0.37503,0.0769 0.22071,0.14686 0.36215,0.58436 0.48125,0.81553 0.31752,0.61628 0.6528,1.22332 0.97397,1.83766 0.0999,0.19105 0.29045,0.77129 0.48952,0.85702 0.12527,0.0539 0.30958,-0.13019 0.40866,-0.18799 0.30386,-0.17727 0.69955,-0.32584 1.03964,-0.41417 0.46433,-0.12054 1.01932,-0.047 1.45665,-0.24018 0.304,-0.13424 0.37198,-0.45013 0.64427,-0.62074 0.37399,-0.23435 0.86648,-0.19245 1.24844,-0.37588 0.22951,-0.11025 0.12062,-0.34861 0.28671,-0.47581 0.34327,-0.26291 0.8666,-0.22015 1.27732,-0.29935 0.54488,-0.10504 1.06436,-0.11753 1.60546,-0.18009 0.32768,-0.0378 0.65993,-0.0512 0.80118,0.29248 0.21079,-0.003 0.41816,0.0936 0.64071,0.063 0.36328,-0.0499 0.72638,-0.2562 1.04099,-0.42159 0.0952,-0.05 0.18525,-0.0183 0.27999,-0.0939 0.21123,-0.16767 0.32161,-0.40884 0.49105,-0.60664 0.0671,-0.0783 0.17824,-0.0956 0.23806,-0.18167 0.0654,-0.0942 0.0638,-0.2196 0.13158,-0.3131 0.0554,-0.0765 0.16003,-0.11288 0.20083,-0.19965 0.0513,-0.10907 -0.065,-0.21863 -0.0333,-0.33869 0.0431,-0.1609 0.18592,-0.27736 0.20257,-0.44796 0.0154,-0.15824 -0.006,-0.36152 -0.12569,-0.47613 -0.13146,-0.12564 -0.31143,-0.14408 -0.32968,-0.35826 -0.0462,-0.53306 0.52512,-0.71963 0.72406,-1.12116 0.12059,-0.24339 0.17421,-0.70199 0.4043,-0.86428 0.59585,-0.42027 1.49705,-0.41127 2.18759,-0.50842 0.33148,-0.0467 0.59005,-0.20562 0.90446,-0.28381 0.17292,-0.043 0.3459,0.004 0.51873,-0.0205 0.13169,-0.0185 0.23853,-0.10048 0.36645,-0.12908 0.22838,-0.0511 0.7581,0.15341 0.93692,0.008 0.0642,-0.0523 0.0835,-0.19578 0.13209,-0.26758 0.0861,-0.1272 0.21887,-0.20213 0.30673,-0.32221 0.0703,-0.0961 0.0978,-0.21678 0.18548,-0.30147 0.14729,-0.14224 0.39428,-0.17753 0.46038,-0.39825 0.0347,-0.11615 -0.0605,-0.20654 -0.0381,-0.31995 0.10307,-0.52313 0.28559,-1.02818 0.36615,-1.55292 0.0327,-0.21349 -0.086,-0.41503 -0.009,-0.63512 0.0782,-0.22377 0.28734,-0.40499 0.43915,-0.58049 0.31,-0.35837 0.56144,-0.66634 0.97403,-0.92727 0.7133,-0.45112 1.52027,-0.69749 2.33582,-0.87785 0.29524,-0.0652 0.60794,-0.18443 0.91044,-0.20021 0.33352,-0.0178 0.77834,0.0763 1.09568,-0.0346 0.0963,-0.0337 0.15897,-0.11808 0.24837,-0.16388 0.15408,-0.079 0.31107,-0.0944 0.39372,-0.27412 0.0759,-0.16508 -0.13666,-0.33414 -0.19161,-0.47756 -0.0541,-0.14113 0.037,-0.29124 -0.0279,-0.43148 -0.11152,-0.24288 -0.35158,-0.40218 -0.36317,-0.69649 -0.01,-0.24926 0.13465,-0.47253 0.0758,-0.7279 -0.0656,-0.28507 -0.30071,-0.46127 -0.40585,-0.72235 -0.0787,-0.19551 0.0373,-0.45151 -0.002,-0.66455 -0.0294,-0.16097 -0.1785,-0.26492 -0.17389,-0.43768 0.006,-0.22244 0.21298,-0.44905 0.30919,-0.64127 0.12935,-0.25841 0.23524,-0.65566 0.26285,-0.94356 0.0225,-0.23491 0.12882,-0.53273 0.11706,-0.75973 -0.007,-0.14384 -0.12327,-0.25515 -0.14729,-0.39406 -0.0239,-0.13824 0.092,-0.32464 0.15418,-0.44448 0.12414,-0.23929 0.46853,-0.28377 0.56772,-0.50605 0.0658,-0.14737 -0.10329,-0.25123 -0.0579,-0.39741 0.0904,-0.2911 0.42525,-0.27557 0.55756,-0.48578 0.098,-0.1557 -0.0353,-0.36712 0.13036,-0.53723 0.13862,-0.14246 0.67958,-0.46312 0.85155,-0.26535 0.16069,0.18479 -0.0588,0.4449 -0.0855,0.63529 -0.017,0.12129 0.0452,0.25164 0.0633,0.37115 l -0.1294,-0.19303 -0.0288,0.002 -0.0308,0.37788 0.43745,0.0553 -0.0206,0.11705 0.42579,-0.10755 0.52576,0.0858 0.40796,-0.36445 0.19612,-0.85211 0.10172,-0.49853 0.36737,-0.66206 c 0.19317,0.0766 0.32096,-0.0637 0.32859,-0.25469 -0.092,0.0485 -0.29401,0.21788 -0.34398,0.0226 -0.0577,-0.22515 0.25733,-0.31692 0.33952,-0.46946 0.0859,-0.15957 0.24314,-0.30789 0.31373,-0.47185 0.0507,-0.11781 0.0266,-0.25852 0.072,-0.38072 0.11861,-0.31969 0.35729,-0.66504 0.56233,-0.93609 0.37289,-0.49291 0.7873,-1.01244 1.28244,-1.38925 0.24074,-0.18322 0.72336,-0.2902 0.89033,-0.54027 0.0654,-0.0979 0.0663,-0.23678 0.11829,-0.34396 0.13682,-0.2817 0.31892,-0.54735 0.43177,-0.84006 0.0918,-0.23798 0.10163,-0.50463 0.20551,-0.73717 0.12499,-0.27977 0.32203,-0.65199 0.49951,-0.89956 0.0718,-0.10018 0.21003,-0.13633 0.25433,-0.25563 0.0971,-0.26151 0.0374,-0.58063 0.15483,-0.8459 0.10035,-0.22662 0.32564,-0.4166 0.45141,-0.63929 0.22915,-0.40577 0.22485,-0.83692 0.24078,-1.28877 0.009,-0.26512 0.0229,-0.55222 -0.16511,-0.76686 -0.0586,-0.067 -0.39073,-0.23146 -0.41694,-0.0493 -0.0103,0.0716 0.0673,0.15665 0.10078,0.2148 -0.14999,-0.0409 -0.1831,-0.13124 -0.22183,-0.27312 -0.20696,0.003 -0.33678,-0.16726 -0.53296,-0.1787 -0.22275,-0.013 -0.42321,0.27025 -0.62945,0.0884 l 0.115,-0.008 c -0.0853,-0.22002 -0.39911,-0.29973 -0.57984,-0.43032 -0.22688,-0.16395 -0.31269,-0.41586 -0.50315,-0.60978 -0.10089,-0.10276 -0.25404,-0.12859 -0.34258,-0.24633 -0.18475,-0.2457 -0.22634,-0.58822 -0.41965,-0.83567 -0.2194,-0.28088 -0.59016,-0.32696 -0.82082,-0.5797 -0.0733,-0.0804 -0.0827,-0.18912 -0.14372,-0.2761 -0.0949,-0.13514 -0.26065,-0.20929 -0.34642,-0.35091 -0.0618,-0.10202 -0.0524,-0.23317 -0.10706,-0.33912 -0.0625,-0.1211 -0.18315,-0.19485 -0.26724,-0.29878 -0.0808,-0.0999 -0.10704,-0.23083 -0.18672,-0.3304 -0.17577,-0.21972 -0.50487,-0.27528 -0.67003,-0.53309 -0.14504,-0.22641 -0.15623,-0.50115 -0.31623,-0.72875 l -0.14378,0.0103 -0.0226,0.0882 -0.0288,0.002 -0.037,-0.11294 -0.1109,0.0658 c -0.0853,-0.14577 -0.21844,-0.12682 -0.33898,-0.22348 -0.13865,-0.11116 -0.16346,-0.30436 -0.34011,-0.37607 -0.33688,-0.13678 -0.49877,0.0634 -0.76778,0.17004 -0.21651,0.0858 -0.51895,0.10689 -0.74686,0.0614 -0.22224,-0.0442 -0.33411,-0.19893 -0.52115,-0.30232 -0.15764,-0.0872 -0.40528,-0.14351 -0.58246,-0.17796 -0.41099,-0.0799 -0.80905,0.10188 -1.20925,0.0628 -0.13375,-0.0131 -0.32898,-0.0666 -0.43884,-0.1449 -0.0865,-0.0617 -0.1416,-0.16987 -0.25251,-0.19153 -0.23023,-0.045 -0.48239,0.0466 -0.71893,0.0129 -0.29902,-0.0427 -0.56632,-0.17642 -0.85598,-0.25031 -0.33758,-0.0861 -0.69086,-0.11101 -1.02614,-0.20522 -1.06998,-0.30064 -2.00704,-0.94927 -2.74397,-1.78517 -0.16822,-0.19081 -0.24334,-0.44011 -0.41798,-0.63478 -0.45857,-0.51112 -0.99922,-0.90345 -1.35853,-1.49226 -0.33901,-0.55557 -0.60974,-1.12149 -0.90917,-1.69781 -0.0751,-0.14466 -0.1615,-0.56122 -0.29347,-0.64278 -0.34615,-0.21389 -0.31573,0.36103 -0.39719,0.4873 -0.0871,0.13501 -0.25229,0.31083 -0.39051,0.393 -0.0965,0.0573 -0.23557,0.0427 -0.30828,0.13681 -0.13059,0.16878 -0.14354,0.52304 -0.39233,0.57451 -0.31957,0.0661 -0.39525,-0.30264 -0.52871,-0.49459 -0.20076,-0.28876 -0.30463,-0.43447 0.1274,-0.26921 -0.0351,-0.17324 -0.0665,-0.45512 -0.20079,-0.58111 -0.37004,-0.34733 -0.9347,0.17674 -1.08369,0.49959 -0.11098,0.24046 -0.002,0.47481 0.0224,0.72088 0.0137,0.13549 -0.0188,0.26848 0.0184,0.40326 0.0282,0.10228 0.11021,0.19801 0.11943,0.30444 0.0179,0.20779 -0.24377,0.43583 -0.23873,0.65776 0.004,0.17685 0.0567,0.58208 0.13198,0.73934 0.0579,0.12088 0.18256,0.16042 0.20502,0.30581 0.0406,0.26287 -0.33347,0.66226 -0.21423,0.87424 0.17404,0.30937 0.6501,-0.0415 0.85623,0.005 0.21565,0.048 0.24301,0.3626 0.32582,0.52584 0.0468,0.0921 0.18523,0.21956 0.15745,0.33168 -0.0383,0.15434 -0.51928,0.27291 -0.65718,0.33984 -0.38777,0.18824 -0.75177,0.0568 -1.17658,0.11573 -0.25463,0.0351 -0.45042,0.19263 -0.67143,0.30949 -0.0996,0.0526 -0.2981,0.0808 -0.37007,0.16519 -0.0775,0.0911 0.0454,0.21502 0.1149,0.26495 0.27203,0.19547 0.47962,0.51781 0.37798,0.88644 -0.0532,0.19319 -0.20592,0.34585 -0.26291,0.53898 -0.0755,0.25596 -0.0583,0.54436 -0.16179,0.79184 -0.087,0.20813 -0.27083,0.35441 -0.34151,0.5735 -0.11907,0.36902 -0.081,0.77235 -0.21532,1.14245 -0.19704,0.54298 -0.54149,1.00606 -0.58433,1.60235 -0.0264,0.36758 0.0946,0.72679 0.0957,1.0913 8.4e-4,0.25691 -0.0739,0.62649 0.0354,0.86444 0.16073,0.34994 0.46262,0.67629 0.68375,0.99144 0.44995,0.64131 0.89579,1.28537 1.34578,1.92667 0.22157,0.31576 0.63965,0.72546 0.73117,1.10366 0.052,0.21483 -0.0885,0.52024 -0.1334,0.73202 -0.13557,0.6392 -0.29585,1.27401 -0.4447,1.91023 -0.51991,2.22218 -0.99382,4.45953 -1.55613,6.67134 -0.16597,0.65286 -0.31666,1.31222 -0.46445,1.96945 -0.0529,0.23538 -0.0722,0.65729 -0.23274,0.8426 -0.0845,0.0975 -0.2365,0.13207 -0.35048,0.18321 -0.28837,0.12938 -0.58032,0.25063 -0.86869,0.38002 -1.05079,0.47147 -2.11592,0.911 -3.16669,1.38246 -3.91221,1.7553 -7.91815,3.32367 -11.79819,5.14824"
       id="path145" /><path
       style="fill:#00d455;fill-opacity:1;stroke:none;stroke-width:0.341073"
       d="m 43.028949,98.000632 c 0.814932,1.753032 2.740991,3.266228 4.028141,4.691098 0.382754,0.42372 1.415339,1.17626 1.483538,1.76746 0.05992,0.51946 -1.204188,0.97055 -1.506652,1.31885 -0.519762,0.59852 -0.521579,1.59532 -1.103655,2.12432 -0.910083,0.82709 -2.867417,0.73085 -3.997017,1.13056 -0.630877,0.22324 -0.985992,1.13971 -1.345861,1.66137 -0.660322,0.9572 -1.619316,2.14401 -2.617609,2.76195 -0.50545,0.31287 -1.344807,0.0311 -1.89668,-0.0473 -1.591132,-0.22597 -3.230637,-0.34584 -4.800145,-0.69431 -0.780981,2.0478 -0.521667,4.27891 -1.16381,6.34552 -0.275327,0.88607 -1.049159,1.74096 -0.524546,2.62982 l 0.09022,-0.002 c 0.145972,-0.8169 0.703046,-0.5658 1.340766,-0.57291 1.520079,-0.017 2.307377,0.92719 3.10078,2.18543 0.338373,0.53659 0.484505,1.15978 0.812838,1.69628 0.845347,1.38131 2.018374,2.57602 2.936104,3.90391 1.003181,1.45153 1.772567,3.09233 2.781706,4.53804 0.292247,0.41867 0.805651,0.59253 1.088803,0.98798 0.31514,0.44013 -0.154964,1.01416 0.246125,1.48936 0.398011,0.47154 1.077413,0.62087 1.506965,1.15928 0.469207,0.5881 0.59975,1.27637 1.002454,1.87244 0.331808,0.49115 0.845316,0.79396 0.943101,1.42249 0.09115,0.58591 0.02654,1.31415 -0.57913,1.5479 0.396566,0.75226 1.003835,1.39206 1.433477,2.13329 0.212477,0.36657 0.304067,0.92102 0.649552,1.18528 0.371352,0.28405 0.769186,0.0659 1.158036,0.22191 1.329924,0.53379 2.852389,1.43294 3.919819,2.39759 0.461303,0.4169 0.49787,1.03961 0.815875,1.55038 0.339531,0.54536 0.771316,1.01667 1.050919,1.60054 0.249313,0.5206 0.318671,1.10761 0.61027,1.6107 0.294754,0.50852 0.747093,0.89829 1.022526,1.42064 l -0.455258,-0.17003 c 0.31503,1.00567 1.373221,1.99042 1.460089,3.03536 0.06629,0.79739 -0.619947,1.84294 -0.665938,2.72336 -0.04872,0.93333 0.707595,1.65678 0.981741,2.50479 0.232427,0.71895 -0.108596,1.2075 -0.07091,1.89722 0.0501,0.91703 1.066008,2.481 1.933055,2.75363 -0.08324,0.95731 1.565275,2.83613 2.420725,3.1964 0.495559,0.20871 1.072816,0.0509 1.541676,0.30958 0.731976,0.40456 1.843002,1.03668 2.44472,1.61121 0.25374,0.24225 0.368583,0.59558 0.625599,0.82983 0.210754,0.1921 0.518569,0.15159 0.721632,0.33723 0.404633,0.36994 0.116672,0.88856 0.339765,1.29176 0.222753,0.40257 0.658717,0.6559 0.892863,1.06258 0.259107,0.45005 0.313695,1.00039 0.630173,1.41996 0.168899,0.22391 0.501422,0.31738 0.629785,0.56154 0.120506,0.22922 0.01002,0.53797 0.05687,0.78635 0.0814,0.43279 0.373249,1.30717 0.588491,1.69304 0.23138,0.41482 0.706886,0.64469 0.957449,1.06959 0.715598,1.21351 1.081843,2.57755 2.057942,3.64385 0.762261,0.83272 1.923737,1.29758 2.664384,2.20497 0.5287,0.64772 0.420798,1.58989 0.904115,2.20451 0.211835,0.26937 0.649376,0.28171 0.902213,0.55671 0.752226,0.81815 1.031527,1.87597 1.41647,2.8508 0.141383,0.35801 0.41059,0.59508 0.497606,0.98143 0.529722,-0.10715 1.117917,-0.40971 1.437539,-0.86125 0.326839,-0.46175 0.203081,-0.90696 0.866473,-0.99727 -0.04949,-0.44745 -0.259416,-0.8228 -0.355858,-1.25552 -0.305675,-1.37158 0.02285,-3.71356 1.866814,-3.67472 0.973738,0.0206 1.611482,0.97404 2.639666,0.9503 0.942571,-0.0218 1.626589,-0.70651 2.604565,-0.56976 1.28818,0.18013 2.617228,0.81605 3.820936,1.28841 1.689107,0.66283 3.399031,1.28942 5.099341,1.92446 0.82022,0.30632 1.682576,0.78269 2.548606,0.91604 l 0.23603,6.31319 c 1.258992,-0.93358 2.249182,-2.49786 3.270012,-3.68615 2.44013,-2.84044 4.82125,-5.73163 7.27239,-8.56267 0.79457,-0.91776 1.57153,-1.85048 2.37243,-2.76278 0.37141,-0.42309 0.71746,-0.99931 1.24267,-1.24611 1.11538,-0.5241 2.57209,-0.68918 3.76847,-0.98401 2.09925,-0.51738 4.1893,-1.08363 6.28099,-1.63081 2.71048,-0.70907 5.49881,-1.29789 8.16436,-2.15961 2.90656,-0.9396 5.71956,-2.19145 8.59094,-3.23238 2.24375,-0.8134 4.4961,-1.63673 6.7117,-2.52383 0.65117,-0.26073 1.90692,-0.43291 2.33751,-1.01973 0.70124,-0.95566 0.88641,-2.91658 1.19405,-4.06475 0.52808,-1.97093 1.10694,-3.92889 1.618,-5.90469 0.18054,-0.69797 0.67015,-1.73009 0.54431,-2.44974 -0.12852,-0.73501 -0.88554,-1.52183 -1.28674,-2.13669 -0.30889,-0.4734 -0.80159,-1.61314 -1.32332,-1.8509 -0.26793,-0.12209 -0.74616,0.10095 -1.04677,0.0967 -0.81094,-0.0116 -1.63508,-0.14671 -2.44237,-0.22477 -2.53845,-0.24545 -5.06732,-0.59426 -7.60242,-0.86826 -1.21738,-0.13156 -2.84707,-0.0543 -3.98376,-0.52142 -0.71947,-0.29572 -1.28369,-1.23543 -1.77937,-1.80812 -1.27579,-1.47396 -2.56373,-2.96532 -3.74426,-4.51711 -0.67406,-0.88606 -0.9478,-2.4749 -2.33965,-1.93185 -0.20453,-0.8563 0.57505,-1.24884 0.76613,-2.00355 l -0.98406,0.3838 c -0.3754,-0.60979 -0.97658,-0.13548 -1.53256,-0.26446 -0.40011,-0.0928 -1.38888,-0.85785 -1.7119,-1.15093 -0.29066,-0.26373 -0.29536,-0.68486 -0.4343,-1.02713 -0.18614,-0.45859 -0.58935,-0.78019 -0.75821,-1.24622 -0.18182,-0.50181 -0.091,-1.15188 -0.3781,-1.60666 -0.50122,-0.7939 -1.55625,-1.16747 -2.03397,-2.03857 l 0.63776,0.25608 c -0.41699,-1.00837 -1.80518,-2.07535 -1.42826,-3.21661 l 0.73009,0.3442 c 0.93262,-1.75681 -1.19311,-2.24328 -0.81132,-3.86271 l 0.63986,0.34628 c -0.40356,-0.97426 -1.11493,-0.84706 -1.82861,-1.35815 -0.64432,-0.46142 -0.9927,-1.30944 -1.62948,-1.75349 -0.2599,-0.18123 -0.57676,0.013 -0.84108,-0.17428 -0.59841,-0.42382 -0.66527,-1.21986 -1.40893,-1.54691 l -0.002,-0.0902 c 0.30523,-0.011 1.00394,-0.17363 0.49917,-0.57645 -0.27305,-0.21791 -0.65075,-0.10616 -0.96707,-0.15542 -0.86596,-0.13481 -1.68906,-0.65818 -1.7515,-1.56381 l 0.28106,0.44485 c 0.52325,-0.92756 -0.85632,-1.5831 -1.30566,-2.22651 -0.54002,-0.77324 -0.37572,-2.09888 -0.95172,-2.73721 -0.28973,-0.32106 -0.90118,-0.2871 -1.29381,-0.27993 -0.94359,0.0178 -2.14763,0.25617 -3.06675,0.0421 -1.2374,-0.28826 -0.8022,-2.47462 -1.96783,-2.90172 -1.92726,-0.70616 -4.352792,-0.42412 -6.323955,-0.39882 -1.960799,0.0252 -4.015189,-0.23484 -5.967476,-0.42916 -1.033696,-0.10281 -2.480674,0.0265 -3.438699,-0.37137 -0.870768,-0.36162 -1.653341,-1.21348 -2.388318,-1.79274 -1.657821,-1.30659 -3.302401,-2.63163 -4.965158,-3.93161 -2.69015,-2.1032 -5.297007,-4.63264 -8.18269,-6.45266 -1.403022,-0.884916 -3.11961,-1.256112 -4.562007,-2.108983 -1.789361,-1.058012 -3.619327,-2.78528 -5.586127,-3.459649 -1.470646,-0.504248 -3.264771,-0.624265 -4.803727,-0.849571 -0.644638,-0.09437 -1.434365,-0.394075 -2.083478,-0.318451 -0.53079,0.06187 -0.846924,0.602891 -1.242991,0.898142 -0.399381,0.297718 -0.963554,0.403499 -1.431429,0.55569 -3.337035,1.085509 -6.682357,2.156398 -10.036277,3.185251"
       id="path139" /><path
       style="fill:#c8ab37;fill-opacity:1;stroke:none;stroke-width:0.0696357"
       d="m 99.721731,111.842 c 0.406939,0.12033 0.903569,0.10517 1.326559,0.15045 0.95235,0.10196 1.9049,0.20619 2.85578,0.32334 0.27579,0.034 0.55276,0.0647 0.82909,0.0943 0.12612,0.0135 0.28632,0.005 0.40527,0.051 0.0897,0.0346 0.13479,0.13604 0.18697,0.21005 0.14026,0.19894 0.26254,0.39787 0.34833,0.62643 0.0767,0.20423 0.17848,0.39264 0.22378,0.608 0.0517,0.24584 0.0412,0.51333 0.17076,0.73698 0.11046,0.19074 0.28472,0.25943 0.43169,0.40725 0.0545,0.0548 0.0736,0.15988 0.13648,0.20024 0.0846,0.0542 0.23256,0.002 0.32607,5.4e-4 0.2947,-0.003 0.58965,-6e-5 0.88437,-6e-5 1.13512,0 2.27374,-0.0361 3.4085,-0.0369 -0.16965,-0.24179 -0.22106,-0.37151 -0.25794,-0.66328 -0.0203,0.005 -0.2991,0.0888 -0.19047,-0.0231 0.0387,-0.0399 0.0953,-0.0405 0.1352,-0.0875 l -0.0737,-0.0921 0.11054,0.0369 c -0.0335,-0.16243 -0.008,-0.24921 0.0368,-0.40533 -0.307,-0.0578 -0.58392,-0.22166 -0.67684,-0.55273 -0.0284,-0.10107 0.0504,-0.23696 -0.005,-0.32651 -0.0465,-0.0746 -0.18755,-0.0866 -0.25742,-0.14129 -0.13695,-0.10731 -0.2491,-0.27327 -0.34606,-0.41657 -0.18524,-0.27374 -0.18419,-0.60998 -0.25552,-0.92122 -0.0538,-0.23467 -0.19193,-0.43367 -0.24778,-0.66328 -0.0528,-0.21699 -0.0204,-0.42897 0.0203,-0.64485 -0.16247,0.001 -0.29195,0.033 -0.44218,-0.053 -0.0888,-0.0509 -0.18407,-0.21743 -0.29406,-0.20493 -0.0832,0.009 -0.13388,0.10815 -0.20341,0.14656 -0.0686,0.0379 -0.15163,-0.002 -0.21596,0.0382 -0.0502,0.0311 -0.058,0.0988 -0.10236,0.1365 -0.13849,0.11764 -0.31089,0.0757 -0.45549,0.0104 l 0.18425,-0.27637 c -0.11613,-0.0534 -0.21658,0.01 -0.33164,0.0415 -0.16711,0.0463 -0.34293,0.069 -0.51589,0.069 0.0625,-0.22833 0.23555,-0.20633 0.38525,-0.352 0.12134,-0.11808 0.2003,-0.26736 0.3333,-0.37642 0.16346,-0.13404 0.36327,-0.19503 0.53431,-0.31477 0.1699,-0.11893 0.2954,-0.26553 0.51588,-0.2817 0.33566,-0.0246 0.52639,0.12721 0.8291,0.22548 0.0853,0.0277 0.24063,0.0669 0.2624,-0.0617 0.0286,-0.16915 -0.18034,-0.37768 -0.27299,-0.49711 -0.13808,-0.17797 -0.18896,-0.46532 -0.33399,-0.61986 -0.0432,-0.046 -0.11721,-0.0318 -0.16966,-0.0648 -0.0858,-0.0541 -0.14325,-0.15416 -0.19817,-0.23652 -0.1168,-0.17512 -0.20484,-0.36159 -0.23757,-0.57115 -0.0389,-0.24927 -0.009,-0.48105 -0.21468,-0.67664 -0.18121,-0.17221 -0.54203,-0.25188 -0.7699,-0.35255 -0.21094,-0.0932 -0.41835,-0.20274 -0.64485,-0.25269 -0.34295,-0.0756 -0.71897,-0.0447 -1.06862,-0.0447 -0.31547,0 -0.64559,-0.0186 -0.95806,0.0263 -0.37888,0.0544 -0.81728,0.23484 -1.16074,0.40222 -0.54808,0.26709 -0.70821,0.9347 -0.94533,1.45075 -0.0791,0.17208 -0.21103,0.32282 -0.28027,0.49745 -0.0583,0.14707 -0.0566,0.29651 -0.13377,0.44219 -0.13384,0.25254 -0.32573,0.4728 -0.47193,0.71855 -0.0973,0.16358 -0.15055,0.36602 -0.26728,0.51515 -0.13126,0.16769 -0.31274,0.29459 -0.44757,0.46134 -0.12762,0.15782 -0.21508,0.34645 -0.34967,0.49746 -0.33495,0.37578 -0.79417,0.67582 -1.083839,1.08703 m 9.580769,-5.63783 c -0.18188,-0.0644 -0.36793,-10e-4 -0.49902,0.12898 -0.0349,0.0347 -0.11257,0.0868 -0.0873,0.14538 0.0308,0.0714 0.12533,0.0526 0.18101,0.0299 0.11867,-0.0482 0.337,-0.19601 0.40533,-0.30431 m 0.0369,0.31321 c 0.12361,0.0508 0.10528,0.0984 0.16905,0.19839 0.061,0.0957 0.19745,-0.004 0.26142,0.0857 0.0516,0.072 -0.0908,0.10979 -0.12327,0.14887 -0.0405,0.0488 -0.0286,0.11594 -0.10496,0.13156 -0.12386,0.0253 -0.30909,-0.18757 -0.36806,0.007 0.12644,0.007 0.20526,0.0912 0.1394,0.21915 -0.0661,0.12846 -0.33106,0.12035 -0.37042,0.26249 -0.0191,0.0691 0.19339,0.19894 0.23543,0.25533 0.19163,0.25709 0.29831,0.73346 0.56676,0.91037 0.13596,0.0896 0.32774,0.0474 0.46059,-0.022 0.28149,-0.14708 0.60329,-0.45734 0.60766,-0.79622 0.005,-0.39442 -0.49363,-0.81853 -0.72881,-1.10546 -0.15063,-0.18378 -0.50792,-0.68295 -0.74479,-0.29479 m 1.01442,3.05896 c -0.0565,0.0308 -0.12865,0.16625 -0.0634,0.22007 0.0513,0.0423 0.18149,0.0284 0.24655,0.0427 0.1007,0.0221 0.17528,0.0787 0.25795,0.13659 0.0524,0.0367 0.16518,0.11331 0.23291,0.0755 0.0882,-0.0493 -0.0424,-0.22605 -0.0796,-0.27191 -0.1007,-0.12431 -0.43254,-0.2911 -0.59438,-0.2029 z"
       id="path141" /><path
       style="fill:#ff00ff;fill-opacity:1;stroke:none;stroke-width:0.320254"
       d="m 158.32966,129.04105 c -0.31699,0.007 -0.37549,0.38994 -0.47173,0.61977 -0.0593,0.29194 -0.15334,0.57873 -0.37674,0.78821 -0.15575,0.15683 -0.15741,0.40419 -0.30007,0.56296 -0.0837,0.0271 -0.17419,-0.0893 -0.24819,0.0111 -0.29796,0.31704 -0.7184,0.47363 -1.04814,0.74557 -0.16178,0.13791 -0.38308,0.21328 -0.50172,0.40567 -0.13318,0.16447 -0.20502,0.45332 -0.4668,0.44003 -0.14341,0.034 -0.34596,-0.0477 -0.45821,0.0624 -0.12928,0.25308 -0.18293,0.58941 -0.43096,0.75545 -0.1668,0.0885 -0.29402,0.23957 -0.47104,0.30716 -0.13279,0.16205 -0.26055,0.32833 -0.42812,0.45563 0.0285,0.18103 0.20995,0.42138 0.0745,0.59427 -0.0751,0.0548 -0.22298,0.0315 -0.1761,-0.0926 0.0249,-0.069 0.0222,-0.30454 -0.0965,-0.24317 -0.48634,0.68536 -1.00961,1.39797 -1.73522,1.83916 -0.48627,0.25226 -0.92641,0.58239 -1.39649,0.85765 -0.13049,0.086 -0.11636,0.33185 -0.31931,0.30858 -0.20315,0.0191 -0.43347,0.11082 -0.54481,0.28769 -0.0434,0.24735 0.18358,0.53759 -0.0498,0.73699 -0.15229,0.19718 -0.11234,0.47457 -0.28224,0.66457 -0.0723,0.11924 -0.17324,0.22833 -0.30752,0.2579 -0.007,0.11383 0.17591,0.27258 0.0461,0.37174 -0.0936,-0.0203 -0.20738,-0.11071 -0.24328,0.0329 -0.12163,0.0484 -0.28164,0.0859 -0.29156,0.25176 -0.0388,0.36517 -0.29737,0.67371 -0.5688,0.90312 -0.16536,0.12832 -0.39751,-0.0493 -0.56629,0.1031 -0.35824,0.20132 -0.75871,0.33052 -1.06284,0.6189 -0.36018,0.21383 -0.80227,0.21849 -1.18971,0.36686 -0.41215,0.18419 -0.86126,0.20032 -1.30586,0.21004 -0.3546,-0.0123 -0.73039,0.0896 -1.07345,-0.0256 -0.15083,-0.12094 -0.29896,-0.27372 -0.50908,-0.25902 -0.16291,-0.0389 -0.28309,-0.20937 -0.46943,-0.14232 -0.32917,0.032 -0.70774,0.16559 -1.01637,-0.01 -0.17946,-0.10785 -0.28855,-0.34008 -0.49264,-0.39509 -0.10612,0.0749 0.0238,0.31651 -0.16296,0.25162 -0.26539,-0.0135 -0.56234,0.0136 -0.76758,-0.19032 -0.16834,-0.0541 -0.34056,0.0851 -0.51678,0.0442 -0.5445,-0.006 -1.08692,-0.0604 -1.63,-0.0946 -0.14153,-0.10651 -0.23533,-0.33874 -0.42344,-0.36742 -0.0662,0.0671 -0.0319,0.1976 -0.1249,0.25916 -0.27084,0.249 -0.59956,0.42692 -0.88831,0.65447 -0.19584,0.11043 -0.41261,0.17631 -0.59826,0.30545 -0.44416,0.11399 -0.88561,0.28338 -1.35196,0.26307 -0.29253,0.022 -0.56214,-0.0864 -0.83632,-0.16415 -0.12201,-0.0268 -0.30045,-0.024 -0.33567,0.11644 -0.20111,-2.2e-4 -0.35481,-0.18318 -0.56095,-0.19468 -0.20377,-0.009 -0.34657,-0.17479 -0.3654,-0.36947 -0.12013,-0.50781 -0.0328,-1.03892 -0.11412,-1.54918 -0.11858,-0.005 -0.1406,0.20125 -0.20949,0.27833 -0.0721,0.18019 -0.27502,0.006 -0.29515,-0.11234 -0.0948,0.0153 -0.14677,0.26365 -0.26134,0.14896 -0.15891,-0.25971 -0.0505,-0.59911 -0.17449,-0.86428 -0.10221,0.0234 -0.0574,0.21012 -0.0869,0.29013 -0.0372,0.45575 -0.0556,0.91439 -0.0706,1.37033 1.90342,2.63703 3.7912,5.28806 5.71902,7.90575 0.79944,0.22147 1.63076,0.3152 2.44469,0.47447 4.28143,0.73979 8.56364,1.47835 12.85375,2.16519 0.22435,0.0168 0.51889,0.0984 0.65871,-0.14105 0.192,-0.18869 0.28659,-0.44415 0.27657,-0.71236 0.0646,-0.66697 0.0355,-1.35036 0.18027,-2.00486 0.31294,-0.76253 0.82727,-1.44132 1.00977,-2.2574 0.0801,-0.32966 0.25259,-0.62108 0.46593,-0.8804 0.20982,-0.39303 0.29247,-0.84386 0.53193,-1.22408 0.20471,-0.28866 0.17217,-0.65523 0.17611,-0.98769 -0.14544,-0.17931 -0.42096,-0.30734 -0.46072,-0.55167 0.11671,-0.19525 0.40154,-0.18422 0.58669,-0.28416 0.2379,-0.10625 0.47863,-0.21577 0.74485,-0.17371 0.32864,-0.0115 0.66119,0.0639 0.98663,0.0244 0.34251,-0.0931 0.70741,-0.16001 1.0186,-0.33279 0.0356,-0.11895 -0.11006,-0.22422 -0.12102,-0.34377 -0.0774,-0.17693 -0.12346,-0.37368 -0.21095,-0.54114 -0.33275,-0.0406 -0.70412,0.0417 -1.00946,-0.11866 -0.13121,-0.1557 0.043,-0.36205 0.10234,-0.51247 0.14773,-0.23625 0.25461,-0.56047 0.0534,-0.80097 -0.15076,-0.28531 -0.0805,-0.62784 -0.0961,-0.93862 0.016,-0.16747 0.14068,-0.29729 0.18176,-0.4573 0.12826,-0.11571 0.12975,-0.2857 0.0855,-0.44294 -0.0344,-0.44584 -0.0724,-0.90751 0.017,-1.34756 0.23586,-0.41043 0.73825,-0.74998 1.22193,-0.5839 0.25608,0.13025 0.28387,0.48208 0.267,0.73769 -0.0527,0.1201 -0.18148,-0.03 -0.2656,-0.0337 -0.11523,-0.0414 -0.11302,0.081 -0.043,0.13332 0.22144,0.24674 0.26785,0.63923 0.57557,0.80297 0.20109,0.037 0.29258,-0.23084 0.40543,-0.34952 0.10257,-0.1666 0.22612,-0.3447 0.44054,-0.35534 0.3126,-0.11018 0.60949,-0.36936 0.63335,-0.71676 0.0428,-0.13355 0.1715,-0.19593 0.29653,-0.21483 0.0814,-0.15031 0.0174,-0.35764 0.0481,-0.5255 0.0142,-0.48018 0.0226,-0.96046 0.0343,-1.44067 -0.15412,0.0689 -0.30556,0.24039 -0.48471,0.3137 -0.12998,0.0726 -0.40232,0.2141 -0.48504,0.0124 -0.0728,-0.22648 0.15143,-0.3757 0.17629,-0.58695 0.0587,-0.21046 0.33891,-0.25275 0.47012,-0.0865 0.10044,0.0692 0.2161,0.1815 0.33118,0.18271 10e-4,-0.62964 0.0926,-1.27645 -0.0521,-1.89593 -0.13854,-0.31012 -0.53524,-0.29046 -0.81668,-0.26303 -0.16501,-0.20325 -0.479,-0.34747 -0.45787,-0.65034 -0.0238,-0.19243 0.19072,-0.34416 0.16851,-0.51461 -0.10169,-0.17302 -0.25944,-0.34632 -0.0643,-0.51719 0.21153,-0.34052 0.1311,-0.76701 0.1706,-1.14771 0.0178,-0.1599 -0.0224,-0.30263 -0.21206,-0.28411 z"
       id="path166" /><path
       style="fill:#00ffff;fill-opacity:1;stroke:none;stroke-width:0.0372686"
       d="m 125.92733,131.6684 c -0.021,0.0836 -0.0763,0.12544 -0.1191,0.19647 -0.0339,0.0565 -0.0305,0.10627 -0.0936,0.14386 -0.12492,0.0745 -0.34675,0.10358 -0.42782,0.23024 -0.0634,0.0991 -0.0873,0.20207 -0.11601,0.31469 -0.0142,0.0562 -0.0184,0.12142 -0.0785,0.1441 l -0.0639,-0.0645 c 0.003,0.11248 0.0119,0.23625 -0.0122,0.34691 -0.0351,0.15739 -0.20952,0.41342 -0.0235,0.52569 l 0.007,-0.0303 0.0197,-0.001 c 0.0389,0.12653 0.0329,0.24024 -0.096,0.31345 -0.0113,-0.15538 -0.11992,-0.24776 -0.16163,-0.0475 l -0.0695,-0.004 c 0.005,0.0703 0.0472,0.18183 0.0392,0.24434 -0.005,0.038 -0.0423,0.0654 -0.0521,0.10274 -0.0418,0.15692 -0.0444,0.50197 0.18366,0.50821 0.0927,0.003 0.17683,-0.0561 0.26073,-0.0856 -0.0356,0.0725 -0.0536,0.22031 -0.12082,0.26804 -0.0741,0.0526 -0.14391,-0.0888 -0.2012,0.0322 -0.0359,0.076 -0.0156,0.20388 -0.0192,0.28805 -0.002,0.0347 -0.004,0.0906 -0.0548,0.0847 -0.0506,-0.005 -0.082,-0.0727 -0.10097,-0.11297 -0.0682,-0.14525 0.001,-0.27541 -0.0135,-0.42411 -0.004,-0.0371 -0.0949,-0.13688 -0.13564,-0.11472 -0.0523,0.0285 -0.0459,0.1243 -0.11183,0.16 -0.0762,0.0413 -0.15218,0.0293 -0.18869,0.12468 0.0695,0.0203 0.16666,0.0138 0.21591,0.0738 0.0647,0.079 0.009,0.18476 0.0168,0.27516 0.0125,0.14366 0.0857,0.26161 0.12742,0.39613 -0.0372,-0.006 -0.10542,-0.003 -0.13074,-0.0342 -0.0202,-0.0254 -0.011,-0.064 -0.0229,-0.093 -0.0457,-0.10568 -0.14162,-0.29761 -0.25432,-0.1297 -0.0284,0.0422 -0.0546,0.0849 -0.0861,0.1247 l 6.8e-4,0.009 c 0.13411,0.12648 0.0245,0.26683 0.0348,0.4226 0.0104,0.15641 0.0872,0.31067 0.10856,0.46669 0.0153,0.11101 -0.017,0.22571 -0.0139,0.33714 0.003,0.11496 0.0428,0.21954 0.0533,0.3323 0.005,0.0554 -0.0175,0.10543 -0.0151,0.15926 0.002,0.0598 0.043,0.12386 0.0558,0.18382 0.0217,0.10264 0.0149,0.21316 0.0598,0.3111 0.0365,0.0798 0.15739,0.0726 0.18381,0.16556 0.0401,0.14129 -0.0662,0.28418 -0.0143,0.41628 0.0759,0.19326 0.23857,0.33816 0.2974,0.54199 0.019,0.0659 0.0227,0.13765 0.0323,0.20527 0.028,0.19724 0.12745,0.57724 -0.18432,0.60655 0.0381,0.0958 0.11821,0.18006 0.17731,0.26397 0.13446,0.19092 0.28407,0.46325 0.49662,0.57705 0.30747,0.16462 0.77294,0.14716 1.07687,-0.009 0.10264,-0.0529 0.25768,-0.19395 0.32094,-0.29083 0.0244,-0.0375 0.0135,-0.0808 0.0481,-0.11552 0.0498,-0.05 0.127,-0.0507 0.18926,-0.0753 0.0438,-0.0173 0.0785,-0.0487 0.1241,-0.0611 l 0.0165,0.0977 c 0.0462,-0.004 0.0907,-0.016 0.13693,-0.0206 0.026,-0.002 0.0525,-0.006 0.0787,-0.005 0.0736,0.003 0.0928,0.0697 0.0822,0.13213 -0.0182,0.10496 -0.10576,0.20525 0.007,0.28616 0.0405,-0.078 0.10734,-0.13928 0.14437,-0.21807 0.0267,-0.0568 0.0143,-0.12012 0.0561,-0.17121 0.0751,-0.0917 0.20925,-0.12255 0.2593,-0.23722 0.0376,-0.0863 0.0199,-0.20635 0.0379,-0.29933 0.0136,-0.0707 0.0736,-0.11306 0.0898,-0.18447 0.0384,-0.16924 0.0336,-0.38425 0.10767,-0.5415 0.0266,-0.0566 0.0835,-0.0607 0.11982,-0.10431 0.0329,-0.0396 0.0363,-0.10202 0.0635,-0.14648 0.0591,-0.0972 0.14399,-0.17497 0.19024,-0.28073 0.0429,-0.0982 0.0371,-0.21679 0.0589,-0.32062 0.008,-0.0374 0.0387,-0.0733 0.0378,-0.11148 -0.002,-0.052 -0.0213,-0.10202 -0.0208,-0.15668 0.007,-0.31289 0.0353,-0.64837 -0.0357,-0.9564 -0.0212,-0.0923 -0.0437,-0.26891 -0.13769,-0.3169 -0.10816,-0.0552 -0.32568,0.0309 -0.39227,-0.0996 -0.0353,-0.0692 -0.0269,-0.15099 -0.027,-0.22527 -3.5e-4,-0.14928 0.007,-0.30573 -0.007,-0.45428 -0.0197,-0.20002 -0.22878,-0.31148 -0.26373,-0.49499 -0.0135,-0.0706 0.0651,-0.12635 0.076,-0.19334 0.0203,-0.12279 -0.0146,-0.26008 -0.0236,-0.38386 0.12118,0.0614 0.32472,-0.0585 0.28712,-0.20864 -0.0262,-0.10503 -0.16145,-0.13939 -0.24606,-0.17992 l 0.23803,-0.12598 0.0297,0.13626 c 0.15727,-0.0662 0.14933,-0.16693 0.0679,-0.29163 -0.0184,0.0235 -0.0349,0.0565 -0.0644,0.0673 -0.10212,0.0377 -0.0939,-0.11688 -0.0633,-0.16668 0.0847,-0.13806 0.14991,0.10066 0.1974,0.0117 0.0451,-0.0844 -0.006,-0.21577 -0.026,-0.30114 -0.0559,-0.25485 -0.0689,-0.55467 -0.31098,-0.70753 -0.12485,-0.0788 -0.2467,-0.10233 -0.39222,-0.0918 -0.11439,0.008 -0.24017,0.0592 -0.33776,-0.0252 -0.0951,-0.0822 -0.0619,-0.19494 -0.11098,-0.29782 -0.0344,-0.0721 -0.13304,-0.06 -0.16893,-0.1365 -0.0473,-0.10086 0.009,-0.22884 -0.0294,-0.33399 -0.0468,-0.12791 -0.23652,-0.16972 -0.34656,-0.22205 -0.0418,-0.02 -0.0964,-0.0553 -0.14273,-0.0598 -0.0618,-0.006 -0.13084,0.0776 -0.18004,0.10789 -0.0754,0.0467 -0.12317,0.0359 -0.20547,0.0297 z"
       id="path167" /></g></svg>
