<svg xmlns="http://www.w3.org/2000/svg" xmlns:xlink="http://www.w3.org/1999/xlink" width="500" zoomAndPan="magnify" viewBox="0 0 375 374.999991" height="500" preserveAspectRatio="xMidYMid meet" version="1.2"><g id="15bde0c89e"><path style=" stroke:none;fill-rule:nonzero;fill:#c62828;fill-opacity:1;" d="M 375 187.5 C 375 208.875 371.4375 229.3125 364.78125 248.4375 L 206.25 374.0625 C 200.0625 374.71875 193.875 375 187.5 375 C 83.90625 375 0 291.09375 0 187.5 C 0 83.90625 83.90625 0 187.5 0 C 193.6875 0 199.875 0.28125 205.875 0.84375 L 364.78125 126.5625 C 371.4375 145.6875 375 166.125 375 187.5 Z M 375 187.5 "/><path style=" stroke:none;fill-rule:nonzero;fill:#e0e1e2;fill-opacity:1;" d="M 364.78125 126.5625 L 205.875 126.5625 L 205.875 0.84375 C 280.03125 8.15625 341.4375 58.40625 364.78125 126.5625 Z M 364.78125 126.5625 "/><path style=" stroke:none;fill-rule:nonzero;fill:#2e7d32;fill-opacity:1;" d="M 364.78125 248.4375 C 341.53125 316.40625 280.21875 366.75 206.25 374.0625 L 206.25 248.4375 Z M 364.78125 248.4375 "/><path style=" stroke:none;fill-rule:nonzero;fill:#e0e1e2;fill-opacity:1;" d="M 147.226562 136.6875 L 146.351562 137.007812 C 141.101562 132.710938 122.34375 115.070312 120.675781 113.398438 C 120.992188 112.050781 121.386719 110.773438 121.386719 109.191406 L 121.386719 106.566406 C 122.738281 104.8125 124.011719 103.226562 125.203125 101.71875 L 125.839844 101.71875 L 125.839844 102.1875 C 125.839844 103.695312 127.902344 104.972656 130.527344 104.972656 C 132.589844 104.972656 134.34375 104.175781 134.980469 103.070312 L 137.445312 103.070312 L 137.445312 104.738281 C 137.445312 105.609375 138.242188 106.332031 139.199219 106.332031 L 156.207031 106.332031 C 157.164062 106.332031 157.960938 105.617188 157.960938 104.738281 L 157.960938 96.710938 C 157.960938 95.839844 157.164062 95.117188 156.207031 95.117188 L 139.199219 95.117188 C 138.242188 95.117188 137.445312 95.832031 137.445312 96.710938 L 137.445312 98.382812 L 135.140625 98.382812 C 134.746094 97.105469 132.917969 96.074219 130.527344 96.074219 C 130.367188 96.074219 130.210938 96.148438 130.050781 96.148438 C 141.335938 76.679688 148.808594 60.140625 146.746094 59.183594 C 144.683594 58.226562 133.867188 73.257812 122.585938 92.726562 L 123.300781 93.046875 C 122.664062 93.917969 122.109375 94.800781 121.398438 95.746094 L 121.320312 84.382812 C 119.015625 84.382812 117.429688 82.949219 117.429688 81.523438 L 116.878906 81.523438 L 116.878906 78.742188 L 116.324219 78.742188 L 116.324219 73.171875 L 115.773438 73.171875 L 115.773438 69.441406 L 115.929688 69.441406 L 115.929688 67.378906 C 116.089844 67.378906 116.164062 67.21875 116.324219 67.21875 L 116.398438 67.144531 C 117.273438 66.910156 118.070312 66.589844 118.621094 66.1875 C 118.621094 66.1875 118.621094 66.113281 118.546875 66.027344 C 119.101562 65.632812 119.578125 65.15625 119.820312 64.59375 C 119.980469 64.59375 120.140625 64.753906 120.300781 64.753906 C 121.171875 64.753906 121.894531 64.117188 121.894531 63.320312 C 121.894531 62.605469 121.179688 61.96875 120.300781 61.96875 C 120.140625 61.96875 120.066406 62.042969 119.980469 62.042969 C 119.746094 61.332031 119.269531 60.695312 118.546875 60.132812 L 118.621094 60.054688 C 118.070312 59.664062 117.273438 59.34375 116.398438 59.023438 L 116.324219 59.023438 C 116.007812 58.949219 115.6875 58.867188 115.367188 58.789062 C 115.367188 58.714844 115.367188 58.714844 115.367188 58.632812 C 115.367188 57.917969 114.65625 57.28125 113.773438 57.28125 C 112.902344 57.28125 112.179688 57.917969 112.179688 58.632812 C 112.179688 58.707031 112.179688 58.707031 112.179688 58.789062 C 111.863281 58.867188 111.542969 58.949219 111.226562 59.023438 L 111.148438 59.023438 C 110.277344 59.34375 109.480469 59.664062 108.929688 60.054688 L 109.003906 60.132812 C 108.289062 60.683594 107.8125 61.320312 107.570312 62.042969 C 107.492188 62.042969 107.410156 61.96875 107.25 61.96875 C 106.378906 61.96875 105.65625 62.605469 105.65625 63.320312 C 105.65625 64.117188 106.367188 64.753906 107.25 64.753906 C 107.410156 64.753906 107.570312 64.59375 107.726562 64.59375 C 107.960938 65.148438 108.441406 65.625 109.003906 66.027344 C 108.929688 66.101562 108.929688 66.1875 108.929688 66.1875 C 109.320312 66.664062 110.117188 67.058594 111.074219 67.304688 L 111.074219 69.449219 L 111.234375 69.449219 L 111.234375 73.179688 L 110.679688 73.179688 L 110.679688 78.75 L 110.128906 78.75 L 110.128906 81.609375 L 109.574219 81.609375 C 109.574219 82.960938 107.980469 84.394531 105.683594 84.394531 C 105.683594 84.394531 105.683594 94.96875 105.683594 96 C 104.886719 94.882812 104.25 94.011719 103.621094 93.054688 L 104.335938 92.738281 C 93.046875 73.265625 82.152344 58.238281 80.164062 59.195312 C 78.101562 60.148438 85.414062 76.359375 96.542969 95.597656 L 96.46875 95.597656 C 94.164062 95.597656 92.257812 96.628906 91.941406 97.902344 L 89.398438 97.902344 L 89.398438 96.710938 C 89.398438 95.839844 88.6875 95.117188 87.730469 95.117188 L 70.640625 95.117188 C 69.769531 95.117188 68.972656 95.832031 68.972656 96.710938 L 68.972656 104.738281 C 68.972656 105.609375 69.769531 106.332031 70.640625 106.332031 L 87.730469 106.332031 C 88.6875 106.332031 89.398438 105.617188 89.398438 104.738281 L 89.398438 102.589844 L 92.101562 102.589844 C 92.738281 103.707031 94.40625 104.492188 96.46875 104.492188 C 98.617188 104.492188 100.285156 103.695312 100.921875 102.589844 C 101.398438 102.984375 102.039062 103.304688 102.75 103.304688 C 102.824219 103.304688 102.824219 103.304688 102.824219 103.226562 C 103.621094 104.257812 104.492188 105.289062 105.367188 106.332031 C 105.207031 107.925781 104.972656 108.871094 104.570312 109.191406 L 102 109.191406 C 101.925781 109.265625 101.925781 109.351562 101.925781 109.425781 C 97.949219 109.660156 89.925781 109.820312 83.089844 110.457031 L 83.089844 110.0625 L 79.988281 110.539062 C 79.914062 110.617188 79.914062 110.699219 79.914062 110.773438 C 75.226562 111.328125 71.570312 112.285156 71.570312 113.792969 C 71.570312 115.546875 75.140625 117.214844 79.914062 118.726562 C 79.914062 118.800781 79.914062 118.882812 79.988281 118.960938 L 83.089844 119.914062 L 83.089844 119.597656 C 87.542969 120.710938 92.625 121.742188 97.078125 122.382812 C 90.402344 128.664062 84.835938 133.433594 80.539062 137.007812 L 79.585938 136.6875 C 72.75 144.234375 65.4375 147.496094 68.0625 148.847656 C 68.859375 149.324219 70.367188 149.164062 72.113281 148.773438 C 72.429688 148.695312 72.75 148.539062 73.070312 148.453125 C 77.277344 147.261719 83.007812 144.242188 88.492188 139.078125 L 88.257812 139.003906 C 93.664062 134.710938 99.703125 129.226562 105.898438 123.1875 C 110.992188 123.113281 114.882812 121.996094 117.421875 119.691406 C 117.816406 120.085938 118.132812 120.402344 118.539062 120.804688 C 125.617188 127.882812 132.523438 134.15625 138.570312 139.011719 L 138.335938 139.085938 C 143.820312 144.253906 149.625 147.273438 153.757812 148.460938 C 154.078125 148.539062 154.472656 148.695312 154.714844 148.78125 C 156.542969 149.175781 158.054688 149.335938 158.851562 148.855469 C 161.457031 147.496094 154.058594 144.242188 147.226562 136.6875 Z M 129.1875 95.832031 L 129.898438 96.148438 C 129.582031 96.148438 129.1875 96.226562 128.867188 96.226562 C 128.945312 96.074219 129.101562 95.992188 129.1875 95.832031 Z M 127.679688 101.476562 C 127.835938 101.398438 127.914062 101.316406 127.914062 101.15625 L 127.914062 99.402344 C 127.914062 99.242188 127.835938 99.242188 127.753906 99.167969 C 127.914062 98.054688 129.027344 97.105469 130.539062 97.105469 C 131.726562 97.105469 132.523438 97.742188 132.917969 98.539062 C 132.757812 98.617188 132.601562 98.859375 132.601562 99.253906 L 132.601562 102.273438 C 132.601562 102.507812 132.757812 102.589844 132.835938 102.75 C 132.355469 103.386719 131.558594 103.941406 130.527344 103.941406 C 128.933594 103.941406 127.667969 102.910156 127.667969 101.71875 L 127.667969 101.476562 Z M 98.738281 102.113281 L 98.8125 102.113281 C 98.335938 102.824219 97.539062 103.460938 96.429688 103.460938 C 95.398438 103.460938 94.601562 102.910156 94.125 102.1875 C 94.199219 102.113281 94.359375 102.027344 94.359375 101.792969 L 94.359375 98.773438 C 94.359375 98.382812 94.199219 98.222656 94.039062 98.0625 C 94.433594 97.265625 95.230469 96.628906 96.421875 96.628906 C 97.773438 96.628906 98.804688 97.425781 99.046875 98.382812 L 98.726562 98.382812 C 98.652344 98.382812 98.570312 98.699219 98.570312 99.09375 L 98.570312 101.476562 C 98.578125 101.878906 98.664062 102.113281 98.738281 102.113281 Z M 98.738281 102.113281 "/></g></svg>