<svg xmlns="http://www.w3.org/2000/svg" xmlns:xlink="http://www.w3.org/1999/xlink" width="2500" zoomAndPan="magnify" viewBox="0 0 1874.88 1049.999947" height="1400" preserveAspectRatio="xMidYMid meet" version="1.0"><defs><filter x="0%" y="0%" width="100%" height="100%" id="1996947034"><feColorMatrix values="0 0 0 0 1 0 0 0 0 1 0 0 0 0 1 0 0 0 1 0" color-interpolation-filters="sRGB"/></filter><clipPath id="d0f3320900"><path d="M 582.710938 129 L 1292.164062 129 L 1292.164062 308 L 582.710938 308 Z M 582.710938 129 " clip-rule="nonzero"/></clipPath><clipPath id="da2c09f9a3"><path d="M 582.710938 111 L 1292.164062 111 L 1292.164062 149 L 582.710938 149 Z M 582.710938 111 " clip-rule="nonzero"/></clipPath><mask id="a57d0323c0"><g filter="url(#1996947034)"><rect x="-187.488" width="2249.856" fill="#000000" y="-104.999995" height="1259.999936" fill-opacity="0.15"/></g></mask><clipPath id="bf914c5bae"><path d="M 1 0.226562 L 357.929688 0.226562 L 357.929688 38 L 1 38 Z M 1 0.226562 " clip-rule="nonzero"/></clipPath><clipPath id="920add2571"><rect x="0" width="358" y="0" height="39"/></clipPath><clipPath id="52225e9fe2"><path d="M 582.710938 110.714844 L 1292.164062 110.714844 L 1292.164062 151 L 582.710938 151 Z M 582.710938 110.714844 " clip-rule="nonzero"/></clipPath><mask id="de1ab2a3f7"><g filter="url(#1996947034)"><rect x="-187.488" width="2249.856" fill="#000000" y="-104.999995" height="1259.999936" fill-opacity="0.15"/></g></mask><clipPath id="6459b76fe2"><path d="M 0.710938 1 L 710.164062 1 L 710.164062 39 L 0.710938 39 Z M 0.710938 1 " clip-rule="nonzero"/></clipPath><clipPath id="04077894ff"><rect x="0" width="711" y="0" height="41"/></clipPath><mask id="e96f1e0b24"><g filter="url(#1996947034)"><rect x="-187.488" width="2249.856" fill="#000000" y="-104.999995" height="1259.999936" fill-opacity="0.15"/></g></mask><clipPath id="d3e37a42b4"><rect x="0" width="593" y="0" height="41"/></clipPath><mask id="09f74af1d3"><g filter="url(#1996947034)"><rect x="-187.488" width="2249.856" fill="#000000" y="-104.999995" height="1259.999936" fill-opacity="0.15"/></g></mask><clipPath id="ee5e6d72a3"><path d="M 1 2 L 475.964844 2 L 475.964844 40 L 1 40 Z M 1 2 " clip-rule="nonzero"/></clipPath><clipPath id="d372a2d576"><rect x="0" width="476" y="0" height="41"/></clipPath></defs><g clip-path="url(#d0f3320900)"><path fill="#ffffff" d="M 1292.050781 129.582031 C 1277.917969 186.832031 1263.414062 244.035156 1248.535156 301.199219 C 1041.148438 309.582031 833.6875 309.582031 626.152344 301.199219 C 611.257812 244.023438 596.753906 186.820312 582.632812 129.582031 C 818.96875 140.738281 1055.4375 140.738281 1292.050781 129.582031 Z M 1292.050781 129.582031 " fill-opacity="1" fill-rule="nonzero"/></g><path fill="#ffffff" d="M 1233.1875 340.707031 C 1219.054688 397.957031 1204.492188 455.152344 1189.496094 512.289062 C 1021.507812 518.859375 853.453125 518.859375 685.339844 512.289062 C 670.292969 455.152344 655.730469 397.957031 641.652344 340.707031 C 838.675781 350.003906 1035.855469 350.003906 1233.1875 340.707031 Z M 1233.1875 340.707031 " fill-opacity="1" fill-rule="nonzero"/><path fill="#ffffff" d="M 1174.320312 551.835938 C 1160.1875 609.058594 1145.488281 666.238281 1130.214844 723.375 C 1001.671875 728.164062 873.089844 728.164062 744.46875 723.375 C 729.199219 666.265625 714.496094 609.085938 700.363281 551.835938 C 858.273438 559.28125 1016.257812 559.28125 1174.320312 551.835938 Z M 1174.320312 551.835938 " fill-opacity="1" fill-rule="nonzero"/><path fill="#efc525" d="M 1115.4375 762.960938 C 1101.304688 820.222656 1086.417969 877.386719 1070.78125 934.445312 C 981.847656 937.445312 892.886719 937.445312 803.902344 934.445312 C 788.253906 877.386719 773.367188 820.222656 759.246094 762.960938 C 877.914062 768.546875 996.644531 768.546875 1115.4375 762.960938 Z M 1115.4375 762.960938 " fill-opacity="1" fill-rule="nonzero"/><g clip-path="url(#da2c09f9a3)"><path fill="#ffffff" d="M 1292.050781 129.5625 C 1292.050781 129.863281 1291.90625 130.167969 1291.625 130.46875 C 1291.339844 130.773438 1290.910156 131.074219 1290.34375 131.375 C 1289.773438 131.675781 1289.0625 131.976562 1288.210938 132.277344 C 1287.359375 132.574219 1286.367188 132.875 1285.234375 133.171875 C 1284.101562 133.46875 1282.832031 133.761719 1281.421875 134.058594 C 1280.007812 134.351562 1278.460938 134.644531 1276.777344 134.933594 C 1275.089844 135.222656 1273.269531 135.507812 1271.316406 135.792969 C 1269.359375 136.078125 1267.269531 136.363281 1265.050781 136.640625 C 1262.828125 136.921875 1260.476562 137.199219 1257.996094 137.472656 C 1255.511719 137.746094 1252.902344 138.015625 1250.167969 138.28125 C 1247.429688 138.550781 1244.570312 138.8125 1241.585938 139.074219 C 1238.601562 139.332031 1235.496094 139.589844 1232.269531 139.839844 C 1229.046875 140.09375 1225.703125 140.339844 1222.246094 140.582031 C 1218.789062 140.824219 1215.21875 141.066406 1211.535156 141.296875 C 1207.851562 141.53125 1204.0625 141.761719 1200.164062 141.984375 C 1196.265625 142.210938 1192.261719 142.429688 1188.160156 142.644531 C 1184.054688 142.859375 1179.851562 143.066406 1175.550781 143.269531 C 1171.25 143.472656 1166.855469 143.671875 1162.367188 143.863281 C 1157.878906 144.054688 1153.304688 144.242188 1148.640625 144.421875 C 1143.980469 144.601562 1139.234375 144.777344 1134.40625 144.945312 C 1129.582031 145.113281 1124.679688 145.273438 1119.699219 145.429688 C 1114.71875 145.585938 1109.671875 145.734375 1104.550781 145.878906 C 1099.429688 146.019531 1094.246094 146.15625 1089 146.285156 C 1083.75 146.414062 1078.445312 146.539062 1073.082031 146.65625 C 1067.71875 146.769531 1062.304688 146.878906 1056.839844 146.980469 C 1051.375 147.082031 1045.863281 147.179688 1040.308594 147.265625 C 1034.753906 147.355469 1029.160156 147.433594 1023.53125 147.507812 C 1017.898438 147.582031 1012.234375 147.648438 1006.542969 147.707031 C 1000.847656 147.765625 995.132812 147.816406 989.390625 147.863281 C 983.648438 147.90625 977.886719 147.945312 972.109375 147.972656 C 966.332031 148.003906 960.546875 148.027344 954.746094 148.039062 C 948.949219 148.054688 943.148438 148.0625 937.34375 148.0625 C 931.539062 148.0625 925.734375 148.054688 919.9375 148.039062 C 914.140625 148.027344 908.351562 148.003906 902.574219 147.972656 C 896.796875 147.945312 891.039062 147.90625 885.296875 147.863281 C 879.554688 147.816406 873.835938 147.765625 868.140625 147.707031 C 862.449219 147.648438 856.785156 147.582031 851.15625 147.507812 C 845.523438 147.433594 839.929688 147.355469 834.375 147.265625 C 828.820312 147.179688 823.308594 147.082031 817.84375 146.980469 C 812.378906 146.878906 806.964844 146.769531 801.601562 146.65625 C 796.238281 146.539062 790.933594 146.414062 785.683594 146.285156 C 780.4375 146.15625 775.253906 146.019531 770.132812 145.878906 C 765.015625 145.734375 759.964844 145.585938 754.984375 145.429688 C 750.007812 145.273438 745.105469 145.113281 740.277344 144.945312 C 735.449219 144.777344 730.707031 144.601562 726.042969 144.421875 C 721.378906 144.242188 716.804688 144.054688 712.316406 143.863281 C 707.832031 143.671875 703.4375 143.472656 699.132812 143.269531 C 694.832031 143.066406 690.628906 142.859375 686.527344 142.644531 C 682.421875 142.429688 678.417969 142.210938 674.519531 141.984375 C 670.621094 141.761719 666.832031 141.53125 663.148438 141.296875 C 659.464844 141.066406 655.894531 140.824219 652.4375 140.582031 C 648.980469 140.339844 645.636719 140.09375 642.414062 139.839844 C 639.1875 139.589844 636.082031 139.332031 633.097656 139.074219 C 630.113281 138.8125 627.253906 138.550781 624.515625 138.28125 C 621.78125 138.015625 619.171875 137.746094 616.691406 137.472656 C 614.207031 137.199219 611.855469 136.921875 609.632812 136.640625 C 607.414062 136.363281 605.324219 136.078125 603.367188 135.792969 C 601.414062 135.507812 599.59375 135.222656 597.90625 134.933594 C 596.222656 134.644531 594.675781 134.351562 593.265625 134.058594 C 591.855469 133.761719 590.582031 133.46875 589.449219 133.171875 C 588.316406 132.875 587.324219 132.574219 586.472656 132.277344 C 585.621094 131.976562 584.910156 131.675781 584.34375 131.375 C 583.773438 131.074219 583.347656 130.773438 583.0625 130.46875 C 582.777344 130.167969 582.632812 129.863281 582.632812 129.5625 C 582.632812 129.257812 582.777344 128.957031 583.0625 128.652344 C 583.347656 128.351562 583.773438 128.050781 584.34375 127.75 C 584.910156 127.445312 585.621094 127.148438 586.472656 126.847656 C 587.324219 126.546875 588.316406 126.25 589.449219 125.953125 C 590.582031 125.65625 591.855469 125.359375 593.265625 125.066406 C 594.675781 124.773438 596.222656 124.480469 597.90625 124.191406 C 599.59375 123.902344 601.414062 123.613281 603.367188 123.328125 C 605.324219 123.042969 607.414062 122.761719 609.632812 122.480469 C 611.855469 122.203125 614.207031 121.925781 616.691406 121.652344 C 619.171875 121.378906 621.78125 121.109375 624.515625 120.839844 C 627.253906 120.574219 630.113281 120.308594 633.097656 120.050781 C 636.082031 119.789062 639.1875 119.535156 642.414062 119.285156 C 645.636719 119.03125 648.980469 118.785156 652.4375 118.539062 C 655.894531 118.296875 659.464844 118.058594 663.148438 117.824219 C 666.832031 117.589844 670.621094 117.363281 674.519531 117.136719 C 678.417969 116.914062 682.421875 116.695312 686.527344 116.480469 C 690.628906 116.265625 694.832031 116.058594 699.132812 115.855469 C 703.4375 115.648438 707.832031 115.453125 712.316406 115.261719 C 716.804688 115.070312 721.378906 114.882812 726.042969 114.703125 C 730.707031 114.519531 735.449219 114.347656 740.277344 114.179688 C 745.105469 114.011719 750.007812 113.847656 754.984375 113.691406 C 759.964844 113.539062 765.015625 113.386719 770.132812 113.246094 C 775.253906 113.101562 780.4375 112.964844 785.683594 112.835938 C 790.933594 112.707031 796.238281 112.585938 801.601562 112.46875 C 806.964844 112.351562 812.378906 112.246094 817.84375 112.140625 C 823.308594 112.039062 828.820312 111.945312 834.375 111.859375 C 839.929688 111.769531 845.523438 111.6875 851.15625 111.617188 C 856.785156 111.542969 862.449219 111.476562 868.140625 111.417969 C 873.835938 111.355469 879.554688 111.304688 885.296875 111.261719 C 891.039062 111.214844 896.796875 111.179688 902.574219 111.148438 C 908.351562 111.121094 914.140625 111.097656 919.9375 111.082031 C 925.734375 111.070312 931.539062 111.0625 937.34375 111.0625 C 943.148438 111.0625 948.949219 111.070312 954.746094 111.082031 C 960.546875 111.097656 966.332031 111.121094 972.109375 111.148438 C 977.886719 111.179688 983.648438 111.214844 989.390625 111.261719 C 995.132812 111.304688 1000.847656 111.355469 1006.542969 111.417969 C 1012.234375 111.476562 1017.898438 111.542969 1023.53125 111.617188 C 1029.160156 111.6875 1034.753906 111.769531 1040.308594 111.859375 C 1045.863281 111.945312 1051.375 112.039062 1056.839844 112.140625 C 1062.304688 112.246094 1067.71875 112.351562 1073.082031 112.46875 C 1078.445312 112.585938 1083.75 112.707031 1089 112.835938 C 1094.246094 112.964844 1099.429688 113.101562 1104.550781 113.246094 C 1109.671875 113.386719 1114.71875 113.539062 1119.699219 113.691406 C 1124.679688 113.847656 1129.582031 114.011719 1134.40625 114.179688 C 1139.234375 114.347656 1143.980469 114.519531 1148.640625 114.703125 C 1153.304688 114.882812 1157.878906 115.070312 1162.367188 115.261719 C 1166.855469 115.453125 1171.25 115.648438 1175.550781 115.855469 C 1179.851562 116.058594 1184.054688 116.265625 1188.160156 116.480469 C 1192.261719 116.695312 1196.265625 116.914062 1200.164062 117.136719 C 1204.0625 117.363281 1207.851562 117.589844 1211.535156 117.824219 C 1215.21875 118.058594 1218.789062 118.296875 1222.246094 118.539062 C 1225.703125 118.785156 1229.046875 119.03125 1232.269531 119.285156 C 1235.496094 119.535156 1238.601562 119.789062 1241.585938 120.050781 C 1244.570312 120.308594 1247.429688 120.574219 1250.167969 120.839844 C 1252.902344 121.109375 1255.511719 121.378906 1257.996094 121.652344 C 1260.476562 121.925781 1262.828125 122.203125 1265.050781 122.480469 C 1267.269531 122.761719 1269.359375 123.042969 1271.316406 123.328125 C 1273.269531 123.613281 1275.089844 123.902344 1276.777344 124.191406 C 1278.460938 124.480469 1280.007812 124.773438 1281.421875 125.066406 C 1282.832031 125.359375 1284.101562 125.65625 1285.234375 125.953125 C 1286.367188 126.25 1287.359375 126.546875 1288.210938 126.847656 C 1289.0625 127.148438 1289.773438 127.445312 1290.34375 127.75 C 1290.910156 128.050781 1291.339844 128.351562 1291.625 128.652344 C 1291.90625 128.957031 1292.050781 129.257812 1292.050781 129.5625 Z M 1292.050781 129.5625 " fill-opacity="1" fill-rule="nonzero"/></g><path fill="#ffffff" d="M 1232.785156 340.707031 C 1232.785156 341.011719 1232.667969 341.3125 1232.429688 341.617188 C 1232.195312 341.917969 1231.839844 342.21875 1231.363281 342.519531 C 1230.890625 342.824219 1230.296875 343.121094 1229.589844 343.421875 C 1228.878906 343.722656 1228.054688 344.019531 1227.109375 344.316406 C 1226.167969 344.613281 1225.109375 344.910156 1223.933594 345.203125 C 1222.757812 345.496094 1221.46875 345.789062 1220.066406 346.078125 C 1218.660156 346.367188 1217.144531 346.65625 1215.515625 346.941406 C 1213.886719 347.226562 1212.148438 347.507812 1210.296875 347.789062 C 1208.445312 348.066406 1206.488281 348.34375 1204.421875 348.617188 C 1202.355469 348.890625 1200.179688 349.160156 1197.902344 349.429688 C 1195.621094 349.695312 1193.238281 349.960938 1190.753906 350.21875 C 1188.269531 350.480469 1185.679688 350.734375 1182.996094 350.984375 C 1180.308594 351.238281 1177.527344 351.484375 1174.644531 351.730469 C 1171.765625 351.972656 1168.792969 352.210938 1165.722656 352.445312 C 1162.65625 352.679688 1159.5 352.90625 1156.253906 353.132812 C 1153.003906 353.355469 1149.671875 353.574219 1146.253906 353.789062 C 1142.835938 354.003906 1139.332031 354.210938 1135.75 354.414062 C 1132.167969 354.621094 1128.507812 354.816406 1124.769531 355.007812 C 1121.03125 355.199219 1117.222656 355.386719 1113.339844 355.566406 C 1109.453125 355.75 1105.503906 355.921875 1101.480469 356.089844 C 1097.460938 356.257812 1093.378906 356.421875 1089.230469 356.578125 C 1085.082031 356.730469 1080.878906 356.882812 1076.613281 357.023438 C 1072.347656 357.167969 1068.03125 357.304688 1063.660156 357.433594 C 1059.289062 357.5625 1054.871094 357.683594 1050.402344 357.800781 C 1045.9375 357.917969 1041.425781 358.023438 1036.875 358.128906 C 1032.320312 358.230469 1027.730469 358.324219 1023.105469 358.410156 C 1018.476562 358.5 1013.820312 358.582031 1009.128906 358.652344 C 1004.4375 358.726562 999.722656 358.792969 994.980469 358.851562 C 990.238281 358.910156 985.476562 358.964844 980.691406 359.007812 C 975.910156 359.050781 971.113281 359.089844 966.300781 359.121094 C 961.488281 359.148438 956.667969 359.171875 951.839844 359.1875 C 947.007812 359.199219 942.175781 359.207031 937.34375 359.207031 C 932.507812 359.207031 927.675781 359.199219 922.84375 359.1875 C 918.015625 359.171875 913.195312 359.148438 908.382812 359.121094 C 903.570312 359.089844 898.773438 359.054688 893.992188 359.007812 C 889.207031 358.964844 884.445312 358.914062 879.703125 358.851562 C 874.960938 358.792969 870.246094 358.726562 865.554688 358.652344 C 860.863281 358.582031 856.207031 358.5 851.578125 358.410156 C 846.953125 358.324219 842.363281 358.230469 837.808594 358.128906 C 833.257812 358.023438 828.746094 357.917969 824.28125 357.800781 C 819.8125 357.683594 815.394531 357.5625 811.023438 357.433594 C 806.652344 357.304688 802.335938 357.167969 798.070312 357.023438 C 793.804688 356.882812 789.601562 356.730469 785.453125 356.578125 C 781.304688 356.421875 777.222656 356.257812 773.203125 356.089844 C 769.183594 355.921875 765.230469 355.75 761.347656 355.566406 C 757.460938 355.386719 753.652344 355.199219 749.914062 355.007812 C 746.175781 354.816406 742.515625 354.621094 738.933594 354.414062 C 735.351562 354.210938 731.851562 354.003906 728.429688 353.789062 C 725.011719 353.574219 721.679688 353.355469 718.433594 353.132812 C 715.183594 352.90625 712.027344 352.679688 708.960938 352.445312 C 705.894531 352.210938 702.917969 351.972656 700.039062 351.730469 C 697.160156 351.484375 694.375 351.238281 691.6875 350.984375 C 689.003906 350.734375 686.417969 350.480469 683.929688 350.21875 C 681.445312 349.960938 679.0625 349.695312 676.785156 349.429688 C 674.503906 349.160156 672.332031 348.890625 670.261719 348.617188 C 668.195312 348.34375 666.238281 348.066406 664.386719 347.789062 C 662.535156 347.507812 660.796875 347.226562 659.167969 346.941406 C 657.539062 346.65625 656.023438 346.367188 654.621094 346.078125 C 653.214844 345.789062 651.925781 345.496094 650.75 345.203125 C 649.578125 344.910156 648.519531 344.613281 647.574219 344.316406 C 646.632812 344.019531 645.804688 343.722656 645.09375 343.421875 C 644.386719 343.121094 643.792969 342.824219 643.320312 342.519531 C 642.847656 342.21875 642.492188 341.917969 642.253906 341.617188 C 642.015625 341.3125 641.898438 341.011719 641.898438 340.707031 C 641.898438 340.40625 642.015625 340.101562 642.253906 339.800781 C 642.492188 339.496094 642.847656 339.195312 643.320312 338.894531 C 643.792969 338.59375 644.386719 338.292969 645.09375 337.992188 C 645.804688 337.695312 646.632812 337.394531 647.574219 337.097656 C 648.519531 336.800781 649.578125 336.507812 650.75 336.210938 C 651.925781 335.917969 653.214844 335.625 654.621094 335.335938 C 656.023438 335.046875 657.539062 334.761719 659.167969 334.476562 C 660.796875 334.191406 662.535156 333.90625 664.386719 333.628906 C 666.238281 333.347656 668.195312 333.070312 670.261719 332.796875 C 672.332031 332.523438 674.503906 332.253906 676.785156 331.988281 C 679.0625 331.71875 681.445312 331.457031 683.929688 331.195312 C 686.417969 330.9375 689.003906 330.679688 691.6875 330.429688 C 694.375 330.175781 697.160156 329.929688 700.039062 329.6875 C 702.917969 329.445312 705.894531 329.203125 708.960938 328.972656 C 712.027344 328.738281 715.183594 328.507812 718.433594 328.28125 C 721.679688 328.058594 725.011719 327.839844 728.429688 327.625 C 731.851562 327.410156 735.351562 327.203125 738.933594 327 C 742.515625 326.796875 746.175781 326.597656 749.914062 326.40625 C 753.652344 326.214844 757.460938 326.027344 761.347656 325.847656 C 765.230469 325.667969 769.183594 325.492188 773.203125 325.324219 C 777.222656 325.15625 781.304688 324.996094 785.453125 324.839844 C 789.601562 324.683594 793.804688 324.535156 798.070312 324.390625 C 802.335938 324.25 806.652344 324.113281 811.023438 323.984375 C 815.394531 323.855469 819.8125 323.730469 824.28125 323.613281 C 828.746094 323.5 833.257812 323.390625 837.808594 323.289062 C 842.363281 323.1875 846.953125 323.089844 851.578125 323.003906 C 856.207031 322.914062 860.863281 322.835938 865.554688 322.761719 C 870.246094 322.6875 874.960938 322.621094 879.703125 322.5625 C 884.445312 322.503906 889.207031 322.453125 893.992188 322.40625 C 898.773438 322.363281 903.570312 322.324219 908.382812 322.296875 C 913.195312 322.265625 918.015625 322.242188 922.84375 322.230469 C 927.675781 322.214844 932.507812 322.207031 937.34375 322.207031 C 942.175781 322.207031 947.007812 322.214844 951.839844 322.230469 C 956.667969 322.242188 961.488281 322.265625 966.300781 322.296875 C 971.113281 322.324219 975.910156 322.363281 980.691406 322.40625 C 985.476562 322.453125 990.238281 322.503906 994.980469 322.5625 C 999.722656 322.621094 1004.4375 322.6875 1009.128906 322.761719 C 1013.820312 322.835938 1018.476562 322.914062 1023.105469 323.003906 C 1027.730469 323.089844 1032.320312 323.1875 1036.875 323.289062 C 1041.425781 323.390625 1045.9375 323.5 1050.402344 323.613281 C 1054.871094 323.730469 1059.289062 323.855469 1063.660156 323.984375 C 1068.03125 324.113281 1072.347656 324.25 1076.613281 324.390625 C 1080.878906 324.535156 1085.082031 324.683594 1089.230469 324.839844 C 1093.378906 324.996094 1097.460938 325.15625 1101.484375 325.324219 C 1105.503906 325.492188 1109.453125 325.667969 1113.339844 325.847656 C 1117.222656 326.027344 1121.03125 326.214844 1124.769531 326.40625 C 1128.507812 326.597656 1132.167969 326.796875 1135.75 327 C 1139.332031 327.203125 1142.835938 327.410156 1146.253906 327.625 C 1149.671875 327.839844 1153.003906 328.058594 1156.253906 328.28125 C 1159.5 328.507812 1162.65625 328.738281 1165.722656 328.972656 C 1168.792969 329.203125 1171.765625 329.445312 1174.644531 329.6875 C 1177.527344 329.929688 1180.308594 330.175781 1182.996094 330.429688 C 1185.683594 330.679688 1188.269531 330.9375 1190.753906 331.195312 C 1193.238281 331.457031 1195.621094 331.71875 1197.902344 331.988281 C 1200.179688 332.253906 1202.355469 332.523438 1204.421875 332.796875 C 1206.488281 333.070312 1208.445312 333.347656 1210.296875 333.628906 C 1212.148438 333.90625 1213.886719 334.191406 1215.515625 334.476562 C 1217.144531 334.761719 1218.660156 335.046875 1220.066406 335.335938 C 1221.46875 335.625 1222.757812 335.917969 1223.933594 336.210938 C 1225.109375 336.507812 1226.167969 336.800781 1227.109375 337.097656 C 1228.054688 337.394531 1228.878906 337.695312 1229.589844 337.992188 C 1230.296875 338.292969 1230.890625 338.59375 1231.363281 338.894531 C 1231.839844 339.195312 1232.195312 339.496094 1232.429688 339.800781 C 1232.667969 340.101562 1232.785156 340.40625 1232.785156 340.707031 Z M 1232.785156 340.707031 " fill-opacity="1" fill-rule="nonzero"/><path fill="#ffffff" d="M 1174.320312 551.835938 C 1174.320312 552.136719 1174.226562 552.441406 1174.035156 552.742188 C 1173.84375 553.042969 1173.558594 553.347656 1173.179688 553.648438 C 1172.800781 553.949219 1172.324219 554.25 1171.757812 554.550781 C 1171.1875 554.847656 1170.523438 555.148438 1169.765625 555.445312 C 1169.011719 555.742188 1168.160156 556.035156 1167.21875 556.328125 C 1166.277344 556.625 1165.242188 556.914062 1164.117188 557.203125 C 1162.992188 557.496094 1161.773438 557.78125 1160.46875 558.066406 C 1159.160156 558.351562 1157.765625 558.632812 1156.28125 558.914062 C 1154.796875 559.195312 1153.226562 559.472656 1151.570312 559.746094 C 1149.910156 560.019531 1148.167969 560.289062 1146.339844 560.554688 C 1144.511719 560.824219 1142.601562 561.085938 1140.605469 561.347656 C 1138.613281 561.605469 1136.539062 561.863281 1134.382812 562.113281 C 1132.226562 562.363281 1129.996094 562.613281 1127.683594 562.855469 C 1125.375 563.097656 1122.988281 563.335938 1120.53125 563.570312 C 1118.070312 563.804688 1115.535156 564.035156 1112.933594 564.257812 C 1110.328125 564.484375 1107.652344 564.703125 1104.910156 564.917969 C 1102.167969 565.128906 1099.359375 565.339844 1096.488281 565.542969 C 1093.613281 565.746094 1090.679688 565.945312 1087.679688 566.136719 C 1084.683594 566.328125 1081.625 566.515625 1078.511719 566.695312 C 1075.394531 566.875 1072.226562 567.050781 1069 567.21875 C 1065.777344 567.386719 1062.5 567.546875 1059.171875 567.703125 C 1055.847656 567.859375 1052.472656 568.007812 1049.054688 568.152344 C 1045.632812 568.292969 1042.167969 568.429688 1038.664062 568.558594 C 1035.15625 568.6875 1031.613281 568.8125 1028.03125 568.925781 C 1024.445312 569.042969 1020.828125 569.152344 1017.179688 569.253906 C 1013.527344 569.355469 1009.84375 569.449219 1006.132812 569.539062 C 1002.421875 569.625 998.683594 569.707031 994.921875 569.78125 C 991.160156 569.855469 987.378906 569.921875 983.574219 569.980469 C 979.769531 570.039062 975.949219 570.089844 972.113281 570.136719 C 968.277344 570.179688 964.429688 570.214844 960.570312 570.246094 C 956.710938 570.277344 952.84375 570.296875 948.96875 570.3125 C 945.097656 570.328125 941.21875 570.335938 937.34375 570.335938 C 933.464844 570.335938 929.589844 570.328125 925.714844 570.3125 C 921.839844 570.296875 917.972656 570.277344 914.113281 570.246094 C 910.253906 570.214844 906.40625 570.179688 902.570312 570.136719 C 898.734375 570.089844 894.914062 570.039062 891.109375 569.980469 C 887.304688 569.921875 883.523438 569.855469 879.761719 569.78125 C 876 569.707031 872.261719 569.625 868.550781 569.539062 C 864.839844 569.449219 861.15625 569.355469 857.507812 569.253906 C 853.855469 569.152344 850.238281 569.042969 846.65625 568.925781 C 843.070312 568.8125 839.527344 568.6875 836.019531 568.558594 C 832.515625 568.429688 829.050781 568.292969 825.632812 568.152344 C 822.210938 568.007812 818.835938 567.859375 815.511719 567.703125 C 812.183594 567.546875 808.910156 567.386719 805.683594 567.21875 C 802.460938 567.050781 799.289062 566.875 796.175781 566.695312 C 793.058594 566.515625 790.003906 566.328125 787.003906 566.136719 C 784.007812 565.945312 781.070312 565.746094 778.195312 565.542969 C 775.324219 565.339844 772.515625 565.128906 769.773438 564.917969 C 767.03125 564.703125 764.355469 564.484375 761.753906 564.257812 C 759.148438 564.035156 756.617188 563.804688 754.15625 563.570312 C 751.695312 563.335938 749.308594 563.097656 747 562.855469 C 744.6875 562.613281 742.457031 562.363281 740.300781 562.113281 C 738.148438 561.863281 736.074219 561.605469 734.078125 561.347656 C 732.085938 561.085938 730.175781 560.824219 728.34375 560.554688 C 726.515625 560.289062 724.773438 560.019531 723.117188 559.746094 C 721.457031 559.472656 719.886719 559.195312 718.402344 558.914062 C 716.917969 558.632812 715.523438 558.351562 714.214844 558.066406 C 712.910156 557.78125 711.695312 557.496094 710.566406 557.203125 C 709.441406 556.914062 708.40625 556.625 707.464844 556.328125 C 706.523438 556.035156 705.671875 555.742188 704.917969 555.445312 C 704.160156 555.148438 703.496094 554.847656 702.929688 554.550781 C 702.359375 554.25 701.886719 553.949219 701.503906 553.648438 C 701.125 553.347656 700.839844 553.042969 700.648438 552.742188 C 700.457031 552.441406 700.363281 552.136719 700.363281 551.835938 C 700.363281 551.53125 700.457031 551.230469 700.648438 550.925781 C 700.839844 550.625 701.125 550.324219 701.503906 550.019531 C 701.886719 549.71875 702.359375 549.417969 702.929688 549.121094 C 703.496094 548.820312 704.160156 548.523438 704.917969 548.226562 C 705.671875 547.929688 706.523438 547.632812 707.464844 547.339844 C 708.40625 547.046875 709.441406 546.753906 710.566406 546.464844 C 711.695312 546.175781 712.910156 545.886719 714.214844 545.601562 C 715.523438 545.316406 716.917969 545.035156 718.402344 544.753906 C 719.886719 544.476562 721.457031 544.199219 723.117188 543.925781 C 724.773438 543.652344 726.515625 543.378906 728.34375 543.113281 C 730.175781 542.847656 732.085938 542.582031 734.078125 542.324219 C 736.074219 542.0625 738.148438 541.808594 740.300781 541.554688 C 742.457031 541.304688 744.6875 541.058594 747 540.8125 C 749.308594 540.570312 751.695312 540.332031 754.15625 540.097656 C 756.617188 539.863281 759.148438 539.632812 761.753906 539.410156 C 764.355469 539.1875 767.03125 538.964844 769.773438 538.753906 C 772.515625 538.539062 775.324219 538.328125 778.195312 538.125 C 781.070312 537.921875 784.007812 537.726562 787.003906 537.53125 C 790.003906 537.339844 793.058594 537.15625 796.175781 536.972656 C 799.289062 536.792969 802.460938 536.621094 805.683594 536.453125 C 808.910156 536.285156 812.183594 536.121094 815.511719 535.964844 C 818.835938 535.808594 822.210938 535.660156 825.632812 535.519531 C 829.050781 535.375 832.515625 535.238281 836.019531 535.109375 C 839.527344 534.980469 843.070312 534.859375 846.65625 534.742188 C 850.238281 534.625 853.855469 534.515625 857.507812 534.414062 C 861.15625 534.3125 864.839844 534.21875 868.550781 534.128906 C 872.261719 534.042969 876 533.960938 879.761719 533.886719 C 883.523438 533.816406 887.304688 533.75 891.109375 533.6875 C 894.914062 533.628906 898.734375 533.578125 902.570312 533.535156 C 906.40625 533.488281 910.253906 533.453125 914.113281 533.421875 C 917.972656 533.394531 921.839844 533.371094 925.714844 533.355469 C 929.589844 533.339844 933.464844 533.332031 937.34375 533.332031 C 941.21875 533.332031 945.097656 533.339844 948.96875 533.355469 C 952.84375 533.371094 956.710938 533.394531 960.570312 533.421875 C 964.429688 533.453125 968.277344 533.488281 972.113281 533.535156 C 975.949219 533.578125 979.769531 533.628906 983.574219 533.6875 C 987.378906 533.75 991.160156 533.816406 994.921875 533.886719 C 998.683594 533.960938 1002.421875 534.042969 1006.132812 534.128906 C 1009.84375 534.21875 1013.527344 534.3125 1017.179688 534.414062 C 1020.828125 534.515625 1024.445312 534.625 1028.03125 534.742188 C 1031.613281 534.859375 1035.15625 534.980469 1038.664062 535.109375 C 1042.167969 535.238281 1045.632812 535.375 1049.054688 535.519531 C 1052.472656 535.660156 1055.847656 535.808594 1059.171875 535.964844 C 1062.5 536.121094 1065.777344 536.285156 1069 536.453125 C 1072.226562 536.621094 1075.394531 536.792969 1078.511719 536.972656 C 1081.625 537.15625 1084.683594 537.339844 1087.679688 537.53125 C 1090.679688 537.726562 1093.613281 537.921875 1096.488281 538.125 C 1099.359375 538.328125 1102.167969 538.539062 1104.910156 538.753906 C 1107.652344 538.964844 1110.328125 539.1875 1112.933594 539.410156 C 1115.535156 539.632812 1118.070312 539.863281 1120.53125 540.097656 C 1122.988281 540.332031 1125.375 540.570312 1127.683594 540.8125 C 1129.996094 541.058594 1132.226562 541.304688 1134.382812 541.554688 C 1136.539062 541.808594 1138.613281 542.0625 1140.605469 542.324219 C 1142.597656 542.582031 1144.511719 542.847656 1146.339844 543.113281 C 1148.167969 543.378906 1149.910156 543.652344 1151.570312 543.925781 C 1153.226562 544.199219 1154.796875 544.476562 1156.28125 544.753906 C 1157.765625 545.035156 1159.160156 545.316406 1160.46875 545.601562 C 1161.773438 545.886719 1162.992188 546.175781 1164.117188 546.464844 C 1165.242188 546.753906 1166.277344 547.046875 1167.21875 547.339844 C 1168.160156 547.632812 1169.011719 547.929688 1169.765625 548.226562 C 1170.523438 548.523438 1171.1875 548.820312 1171.757812 549.121094 C 1172.324219 549.417969 1172.800781 549.71875 1173.179688 550.019531 C 1173.558594 550.324219 1173.84375 550.625 1174.035156 550.925781 C 1174.226562 551.230469 1174.320312 551.53125 1174.320312 551.835938 Z M 1174.320312 551.835938 " fill-opacity="1" fill-rule="nonzero"/><path fill="#efc525" d="M 1115.4375 762.960938 C 1115.4375 763.265625 1115.367188 763.566406 1115.222656 763.871094 C 1115.078125 764.171875 1114.867188 764.472656 1114.578125 764.773438 C 1114.292969 765.074219 1113.9375 765.375 1113.507812 765.675781 C 1113.082031 765.976562 1112.582031 766.273438 1112.015625 766.570312 C 1111.445312 766.867188 1110.808594 767.164062 1110.101562 767.457031 C 1109.390625 767.75 1108.613281 768.042969 1107.769531 768.332031 C 1106.921875 768.621094 1106.007812 768.910156 1105.027344 769.195312 C 1104.042969 769.480469 1102.996094 769.761719 1101.878906 770.042969 C 1100.765625 770.320312 1099.585938 770.597656 1098.339844 770.871094 C 1097.09375 771.144531 1095.78125 771.414062 1094.40625 771.683594 C 1093.035156 771.949219 1091.597656 772.214844 1090.097656 772.472656 C 1088.601562 772.734375 1087.042969 772.988281 1085.421875 773.238281 C 1083.804688 773.492188 1082.125 773.738281 1080.390625 773.980469 C 1078.652344 774.226562 1076.859375 774.464844 1075.011719 774.699219 C 1073.164062 774.933594 1071.257812 775.160156 1069.300781 775.386719 C 1067.34375 775.609375 1065.335938 775.828125 1063.273438 776.042969 C 1061.214844 776.257812 1059.101562 776.464844 1056.945312 776.667969 C 1054.785156 776.871094 1052.578125 777.070312 1050.324219 777.261719 C 1048.070312 777.453125 1045.773438 777.640625 1043.433594 777.820312 C 1041.09375 778 1038.710938 778.175781 1036.285156 778.34375 C 1033.863281 778.511719 1031.402344 778.675781 1028.902344 778.832031 C 1026.402344 778.984375 1023.867188 779.136719 1021.296875 779.277344 C 1018.726562 779.421875 1016.121094 779.554688 1013.488281 779.6875 C 1010.851562 779.816406 1008.1875 779.9375 1005.496094 780.054688 C 1002.804688 780.167969 1000.085938 780.277344 997.339844 780.378906 C 994.597656 780.484375 991.828125 780.578125 989.039062 780.664062 C 986.25 780.753906 983.441406 780.835938 980.617188 780.90625 C 977.789062 780.980469 974.945312 781.046875 972.085938 781.105469 C 969.226562 781.164062 966.355469 781.21875 963.472656 781.261719 C 960.589844 781.304688 957.699219 781.34375 954.796875 781.375 C 951.898438 781.402344 948.992188 781.425781 946.082031 781.441406 C 943.167969 781.453125 940.257812 781.460938 937.34375 781.460938 C 934.425781 781.460938 931.515625 781.453125 928.605469 781.441406 C 925.691406 781.425781 922.785156 781.402344 919.886719 781.375 C 916.984375 781.34375 914.09375 781.304688 911.210938 781.261719 C 908.328125 781.21875 905.457031 781.164062 902.597656 781.105469 C 899.738281 781.046875 896.894531 780.980469 894.070312 780.90625 C 891.242188 780.835938 888.433594 780.753906 885.644531 780.664062 C 882.855469 780.578125 880.089844 780.484375 877.34375 780.378906 C 874.601562 780.277344 871.882812 780.167969 869.1875 780.054688 C 866.496094 779.9375 863.832031 779.816406 861.195312 779.6875 C 858.5625 779.554688 855.960938 779.421875 853.390625 779.277344 C 850.820312 779.136719 848.28125 778.984375 845.78125 778.832031 C 843.285156 778.675781 840.820312 778.511719 838.398438 778.34375 C 835.972656 778.175781 833.59375 778 831.25 777.820312 C 828.910156 777.640625 826.613281 777.453125 824.359375 777.261719 C 822.105469 777.070312 819.902344 776.871094 817.742188 776.667969 C 815.582031 776.464844 813.472656 776.257812 811.410156 776.042969 C 809.347656 775.828125 807.339844 775.609375 805.382812 775.386719 C 803.425781 775.160156 801.523438 774.933594 799.671875 774.699219 C 797.824219 774.464844 796.03125 774.226562 794.296875 773.980469 C 792.558594 773.738281 790.882812 773.492188 789.261719 773.238281 C 787.640625 772.988281 786.082031 772.734375 784.585938 772.472656 C 783.085938 772.214844 781.652344 771.949219 780.277344 771.683594 C 778.902344 771.414062 777.59375 771.144531 776.347656 770.871094 C 775.101562 770.597656 773.917969 770.320312 772.804688 770.042969 C 771.6875 769.761719 770.640625 769.480469 769.65625 769.195312 C 768.675781 768.910156 767.761719 768.621094 766.917969 768.332031 C 766.070312 768.042969 765.292969 767.75 764.585938 767.457031 C 763.875 767.164062 763.238281 766.867188 762.667969 766.570312 C 762.101562 766.273438 761.601562 765.976562 761.175781 765.675781 C 760.746094 765.375 760.390625 765.074219 760.105469 764.773438 C 759.820312 764.472656 759.605469 764.171875 759.460938 763.871094 C 759.320312 763.566406 759.246094 763.265625 759.246094 762.960938 C 759.246094 762.660156 759.320312 762.355469 759.460938 762.054688 C 759.605469 761.75 759.820312 761.449219 760.105469 761.148438 C 760.390625 760.847656 760.746094 760.546875 761.175781 760.246094 C 761.601562 759.945312 762.101562 759.648438 762.667969 759.351562 C 763.238281 759.054688 763.875 758.757812 764.585938 758.464844 C 765.292969 758.171875 766.070312 757.878906 766.917969 757.589844 C 767.761719 757.300781 768.675781 757.011719 769.65625 756.730469 C 770.640625 756.445312 771.6875 756.160156 772.804688 755.882812 C 773.917969 755.601562 775.101562 755.324219 776.347656 755.050781 C 777.59375 754.777344 778.902344 754.507812 780.277344 754.238281 C 781.652344 753.972656 783.085938 753.710938 784.585938 753.449219 C 786.082031 753.191406 787.640625 752.933594 789.261719 752.683594 C 790.882812 752.429688 792.558594 752.183594 794.296875 751.941406 C 796.03125 751.695312 797.824219 751.457031 799.671875 751.222656 C 801.523438 750.992188 803.425781 750.761719 805.382812 750.535156 C 807.339844 750.3125 809.347656 750.09375 811.410156 749.878906 C 813.472656 749.664062 815.582031 749.457031 817.742188 749.253906 C 819.902344 749.050781 822.105469 748.851562 824.359375 748.660156 C 826.613281 748.46875 828.910156 748.28125 831.25 748.101562 C 833.59375 747.921875 835.972656 747.746094 838.398438 747.578125 C 840.820312 747.410156 843.28125 747.25 845.78125 747.09375 C 848.28125 746.9375 850.820312 746.789062 853.390625 746.644531 C 855.960938 746.503906 858.5625 746.367188 861.195312 746.238281 C 863.832031 746.105469 866.496094 745.984375 869.1875 745.867188 C 871.882812 745.753906 874.601562 745.644531 877.34375 745.542969 C 880.089844 745.441406 882.855469 745.34375 885.644531 745.257812 C 888.433594 745.167969 891.242188 745.089844 894.070312 745.015625 C 896.894531 744.941406 899.738281 744.875 902.597656 744.816406 C 905.457031 744.757812 908.328125 744.707031 911.210938 744.660156 C 914.09375 744.617188 916.984375 744.578125 919.886719 744.550781 C 922.785156 744.519531 925.691406 744.496094 928.605469 744.484375 C 931.515625 744.46875 934.425781 744.460938 937.34375 744.460938 C 940.257812 744.460938 943.167969 744.46875 946.082031 744.484375 C 948.992188 744.496094 951.898438 744.519531 954.796875 744.550781 C 957.699219 744.578125 960.589844 744.617188 963.472656 744.660156 C 966.355469 744.707031 969.226562 744.757812 972.085938 744.816406 C 974.945312 744.875 977.789062 744.941406 980.617188 745.015625 C 983.441406 745.089844 986.25 745.167969 989.039062 745.257812 C 991.828125 745.34375 994.597656 745.441406 997.339844 745.542969 C 1000.085938 745.644531 1002.804688 745.753906 1005.496094 745.867188 C 1008.1875 745.984375 1010.851562 746.105469 1013.488281 746.238281 C 1016.121094 746.367188 1018.726562 746.503906 1021.296875 746.644531 C 1023.867188 746.789062 1026.402344 746.9375 1028.902344 747.09375 C 1031.402344 747.25 1033.863281 747.410156 1036.285156 747.578125 C 1038.710938 747.746094 1041.09375 747.921875 1043.433594 748.101562 C 1045.773438 748.28125 1048.070312 748.46875 1050.324219 748.660156 C 1052.578125 748.851562 1054.785156 749.050781 1056.945312 749.253906 C 1059.101562 749.457031 1061.214844 749.664062 1063.273438 749.878906 C 1065.335938 750.09375 1067.34375 750.3125 1069.300781 750.535156 C 1071.257812 750.761719 1073.164062 750.992188 1075.011719 751.222656 C 1076.859375 751.457031 1078.652344 751.695312 1080.390625 751.941406 C 1082.125 752.183594 1083.804688 752.429688 1085.421875 752.683594 C 1087.042969 752.933594 1088.601562 753.191406 1090.097656 753.449219 C 1091.597656 753.710938 1093.035156 753.972656 1094.40625 754.238281 C 1095.78125 754.507812 1097.09375 754.777344 1098.339844 755.050781 C 1099.585938 755.324219 1100.765625 755.601562 1101.878906 755.882812 C 1102.996094 756.160156 1104.042969 756.445312 1105.027344 756.730469 C 1106.007812 757.015625 1106.921875 757.300781 1107.769531 757.589844 C 1108.613281 757.878906 1109.390625 758.171875 1110.101562 758.464844 C 1110.808594 758.757812 1111.445312 759.054688 1112.015625 759.351562 C 1112.582031 759.648438 1113.082031 759.945312 1113.507812 760.246094 C 1113.9375 760.546875 1114.292969 760.847656 1114.578125 761.148438 C 1114.867188 761.449219 1115.078125 761.75 1115.222656 762.054688 C 1115.367188 762.355469 1115.4375 762.660156 1115.4375 762.960938 Z M 1115.4375 762.960938 " fill-opacity="1" fill-rule="nonzero"/><g mask="url(#a57d0323c0)"><g transform="matrix(1, 0, 0, 1, 758, 744)"><g clip-path="url(#920add2571)"><g clip-path="url(#bf914c5bae)"><path fill="#202a44" d="M 357.4375 18.960938 C 357.4375 19.265625 357.367188 19.566406 357.222656 19.871094 C 357.078125 20.171875 356.867188 20.472656 356.578125 20.773438 C 356.292969 21.074219 355.9375 21.375 355.507812 21.675781 C 355.082031 21.976562 354.582031 22.273438 354.015625 22.570312 C 353.445312 22.867188 352.808594 23.164062 352.101562 23.457031 C 351.390625 23.75 350.613281 24.042969 349.769531 24.332031 C 348.921875 24.621094 348.007812 24.910156 347.027344 25.195312 C 346.042969 25.480469 344.996094 25.761719 343.878906 26.042969 C 342.765625 26.320312 341.585938 26.597656 340.339844 26.871094 C 339.09375 27.144531 337.78125 27.414062 336.40625 27.683594 C 335.035156 27.949219 333.597656 28.214844 332.097656 28.472656 C 330.601562 28.734375 329.042969 28.988281 327.421875 29.238281 C 325.804688 29.492188 324.125 29.738281 322.390625 29.984375 C 320.652344 30.226562 318.859375 30.464844 317.011719 30.699219 C 315.164062 30.933594 313.257812 31.160156 311.300781 31.386719 C 309.34375 31.609375 307.335938 31.828125 305.273438 32.042969 C 303.214844 32.257812 301.101562 32.464844 298.945312 32.667969 C 296.785156 32.871094 294.578125 33.070312 292.324219 33.261719 C 290.070312 33.453125 287.773438 33.640625 285.433594 33.820312 C 283.09375 34 280.710938 34.175781 278.285156 34.34375 C 275.863281 34.511719 273.402344 34.675781 270.902344 34.832031 C 268.402344 34.984375 265.867188 35.136719 263.296875 35.277344 C 260.726562 35.421875 258.121094 35.554688 255.488281 35.6875 C 252.851562 35.816406 250.1875 35.9375 247.496094 36.054688 C 244.804688 36.167969 242.085938 36.277344 239.339844 36.378906 C 236.597656 36.484375 233.828125 36.578125 231.039062 36.664062 C 228.25 36.753906 225.441406 36.835938 222.617188 36.90625 C 219.789062 36.980469 216.945312 37.046875 214.085938 37.105469 C 211.226562 37.164062 208.355469 37.21875 205.472656 37.261719 C 202.589844 37.304688 199.699219 37.34375 196.796875 37.375 C 193.898438 37.402344 190.992188 37.425781 188.082031 37.441406 C 185.167969 37.453125 182.257812 37.460938 179.34375 37.460938 C 176.425781 37.460938 173.515625 37.453125 170.605469 37.441406 C 167.691406 37.425781 164.785156 37.402344 161.886719 37.375 C 158.984375 37.34375 156.09375 37.304688 153.210938 37.261719 C 150.328125 37.21875 147.457031 37.164062 144.597656 37.105469 C 141.738281 37.046875 138.894531 36.980469 136.070312 36.90625 C 133.242188 36.835938 130.433594 36.753906 127.644531 36.664062 C 124.855469 36.578125 122.089844 36.484375 119.34375 36.378906 C 116.601562 36.277344 113.882812 36.167969 111.1875 36.054688 C 108.496094 35.9375 105.832031 35.816406 103.195312 35.6875 C 100.5625 35.554688 97.960938 35.421875 95.390625 35.277344 C 92.820312 35.136719 90.285156 34.984375 87.785156 34.832031 C 85.285156 34.675781 82.820312 34.511719 80.398438 34.34375 C 77.972656 34.175781 75.59375 34 73.25 33.820312 C 70.910156 33.640625 68.613281 33.453125 66.359375 33.261719 C 64.105469 33.070312 61.902344 32.871094 59.742188 32.667969 C 57.582031 32.464844 55.472656 32.257812 53.410156 32.042969 C 51.347656 31.828125 49.339844 31.609375 47.382812 31.386719 C 45.425781 31.160156 43.523438 30.933594 41.671875 30.699219 C 39.824219 30.464844 38.03125 30.226562 36.296875 29.980469 C 34.558594 29.738281 32.882812 29.492188 31.261719 29.238281 C 29.640625 28.988281 28.082031 28.734375 26.585938 28.472656 C 25.085938 28.214844 23.652344 27.949219 22.277344 27.683594 C 20.902344 27.414062 19.59375 27.144531 18.347656 26.871094 C 17.101562 26.597656 15.917969 26.320312 14.804688 26.042969 C 13.6875 25.761719 12.640625 25.480469 11.65625 25.195312 C 10.675781 24.910156 9.761719 24.621094 8.917969 24.332031 C 8.070312 24.042969 7.292969 23.75 6.585938 23.457031 C 5.875 23.164062 5.238281 22.867188 4.667969 22.570312 C 4.101562 22.273438 3.601562 21.976562 3.175781 21.675781 C 2.746094 21.375 2.390625 21.074219 2.105469 20.773438 C 1.820312 20.472656 1.605469 20.171875 1.460938 19.871094 C 1.320312 19.566406 1.246094 19.265625 1.246094 18.960938 C 1.246094 18.660156 1.320312 18.355469 1.460938 18.054688 C 1.605469 17.75 1.820312 17.449219 2.105469 17.148438 C 2.390625 16.847656 2.746094 16.546875 3.175781 16.246094 C 3.601562 15.945312 4.101562 15.648438 4.667969 15.351562 C 5.238281 15.054688 5.875 14.757812 6.585938 14.464844 C 7.292969 14.171875 8.070312 13.878906 8.917969 13.589844 C 9.761719 13.300781 10.675781 13.015625 11.65625 12.730469 C 12.640625 12.445312 13.6875 12.160156 14.804688 11.882812 C 15.917969 11.601562 17.101562 11.324219 18.347656 11.050781 C 19.59375 10.777344 20.902344 10.507812 22.277344 10.238281 C 23.652344 9.972656 25.085938 9.710938 26.585938 9.449219 C 28.082031 9.191406 29.640625 8.933594 31.261719 8.683594 C 32.882812 8.429688 34.558594 8.183594 36.296875 7.941406 C 38.03125 7.695312 39.824219 7.457031 41.671875 7.222656 C 43.523438 6.992188 45.425781 6.761719 47.382812 6.535156 C 49.339844 6.3125 51.347656 6.09375 53.410156 5.878906 C 55.472656 5.664062 57.582031 5.457031 59.742188 5.253906 C 61.902344 5.050781 64.105469 4.851562 66.359375 4.660156 C 68.613281 4.46875 70.910156 4.28125 73.25 4.101562 C 75.59375 3.921875 77.972656 3.746094 80.398438 3.578125 C 82.820312 3.410156 85.28125 3.25 87.78125 3.09375 C 90.28125 2.9375 92.820312 2.789062 95.390625 2.644531 C 97.960938 2.503906 100.5625 2.367188 103.195312 2.238281 C 105.832031 2.105469 108.496094 1.984375 111.1875 1.867188 C 113.882812 1.753906 116.601562 1.644531 119.34375 1.542969 C 122.089844 1.441406 124.855469 1.34375 127.644531 1.257812 C 130.433594 1.167969 133.242188 1.089844 136.070312 1.015625 C 138.894531 0.941406 141.738281 0.875 144.597656 0.816406 C 147.457031 0.757812 150.328125 0.707031 153.210938 0.660156 C 156.09375 0.617188 158.984375 0.578125 161.886719 0.550781 C 164.785156 0.519531 167.691406 0.496094 170.605469 0.484375 C 173.515625 0.46875 176.425781 0.460938 179.34375 0.460938 C 182.257812 0.460938 185.167969 0.46875 188.082031 0.484375 C 190.992188 0.496094 193.898438 0.519531 196.796875 0.550781 C 199.699219 0.578125 202.589844 0.617188 205.472656 0.660156 C 208.355469 0.707031 211.226562 0.757812 214.085938 0.816406 C 216.945312 0.875 219.789062 0.941406 222.617188 1.015625 C 225.441406 1.089844 228.25 1.167969 231.039062 1.257812 C 233.828125 1.34375 236.597656 1.441406 239.339844 1.542969 C 242.085938 1.644531 244.804688 1.753906 247.496094 1.867188 C 250.1875 1.984375 252.851562 2.105469 255.488281 2.238281 C 258.121094 2.367188 260.726562 2.503906 263.296875 2.644531 C 265.867188 2.789062 268.402344 2.9375 270.902344 3.09375 C 273.402344 3.25 275.863281 3.410156 278.285156 3.578125 C 280.710938 3.746094 283.09375 3.921875 285.433594 4.101562 C 287.773438 4.28125 290.070312 4.46875 292.324219 4.660156 C 294.578125 4.851562 296.785156 5.050781 298.945312 5.253906 C 301.101562 5.457031 303.214844 5.664062 305.273438 5.878906 C 307.335938 6.09375 309.34375 6.3125 311.300781 6.535156 C 313.257812 6.761719 315.164062 6.992188 317.011719 7.222656 C 318.859375 7.457031 320.652344 7.695312 322.390625 7.941406 C 324.125 8.183594 325.804688 8.429688 327.421875 8.683594 C 329.042969 8.933594 330.601562 9.191406 332.097656 9.449219 C 333.597656 9.710938 335.035156 9.972656 336.40625 10.238281 C 337.78125 10.507812 339.09375 10.777344 340.339844 11.050781 C 341.585938 11.324219 342.765625 11.601562 343.878906 11.882812 C 344.996094 12.160156 346.042969 12.445312 347.027344 12.730469 C 348.007812 13.015625 348.921875 13.300781 349.769531 13.589844 C 350.613281 13.878906 351.390625 14.171875 352.101562 14.464844 C 352.808594 14.757812 353.445312 15.054688 354.015625 15.351562 C 354.582031 15.648438 355.082031 15.945312 355.507812 16.246094 C 355.9375 16.546875 356.292969 16.847656 356.578125 17.148438 C 356.867188 17.449219 357.078125 17.75 357.222656 18.054688 C 357.367188 18.355469 357.4375 18.660156 357.4375 18.960938 Z M 357.4375 18.960938 " fill-opacity="1" fill-rule="nonzero"/></g></g></g></g><g clip-path="url(#52225e9fe2)"><g mask="url(#de1ab2a3f7)"><g transform="matrix(1, 0, 0, 1, 582, 110)"><g clip-path="url(#04077894ff)"><g clip-path="url(#6459b76fe2)"><path fill="#202a44" d="M 710.050781 19.5625 C 710.050781 19.863281 709.90625 20.167969 709.625 20.46875 C 709.339844 20.773438 708.910156 21.074219 708.34375 21.375 C 707.773438 21.675781 707.0625 21.976562 706.210938 22.277344 C 705.359375 22.574219 704.367188 22.875 703.234375 23.171875 C 702.101562 23.46875 700.832031 23.761719 699.421875 24.058594 C 698.007812 24.351562 696.460938 24.644531 694.777344 24.933594 C 693.089844 25.222656 691.269531 25.507812 689.316406 25.792969 C 687.359375 26.078125 685.269531 26.363281 683.050781 26.640625 C 680.828125 26.921875 678.476562 27.199219 675.996094 27.472656 C 673.511719 27.746094 670.902344 28.015625 668.167969 28.28125 C 665.429688 28.550781 662.570312 28.8125 659.585938 29.074219 C 656.601562 29.332031 653.496094 29.589844 650.269531 29.839844 C 647.046875 30.09375 643.703125 30.339844 640.246094 30.582031 C 636.789062 30.824219 633.21875 31.066406 629.535156 31.296875 C 625.851562 31.53125 622.0625 31.761719 618.164062 31.984375 C 614.265625 32.210938 610.261719 32.429688 606.160156 32.644531 C 602.054688 32.859375 597.851562 33.066406 593.550781 33.269531 C 589.25 33.472656 584.855469 33.671875 580.367188 33.863281 C 575.878906 34.054688 571.304688 34.242188 566.640625 34.421875 C 561.980469 34.601562 557.234375 34.777344 552.40625 34.945312 C 547.582031 35.113281 542.679688 35.273438 537.699219 35.429688 C 532.71875 35.585938 527.671875 35.734375 522.550781 35.878906 C 517.429688 36.019531 512.246094 36.15625 507 36.285156 C 501.75 36.414062 496.445312 36.539062 491.082031 36.65625 C 485.71875 36.769531 480.304688 36.878906 474.839844 36.980469 C 469.375 37.082031 463.863281 37.179688 458.308594 37.265625 C 452.753906 37.355469 447.160156 37.433594 441.53125 37.507812 C 435.898438 37.582031 430.234375 37.648438 424.542969 37.707031 C 418.847656 37.765625 413.132812 37.816406 407.390625 37.863281 C 401.648438 37.90625 395.886719 37.945312 390.109375 37.972656 C 384.332031 38.003906 378.546875 38.027344 372.746094 38.039062 C 366.949219 38.054688 361.148438 38.0625 355.34375 38.0625 C 349.539062 38.0625 343.734375 38.054688 337.9375 38.039062 C 332.140625 38.027344 326.351562 38.003906 320.574219 37.972656 C 314.796875 37.945312 309.039062 37.90625 303.296875 37.863281 C 297.554688 37.816406 291.835938 37.765625 286.140625 37.707031 C 280.449219 37.648438 274.785156 37.582031 269.15625 37.507812 C 263.523438 37.433594 257.929688 37.355469 252.375 37.265625 C 246.820312 37.179688 241.308594 37.082031 235.84375 36.980469 C 230.378906 36.878906 224.964844 36.769531 219.601562 36.65625 C 214.238281 36.539062 208.933594 36.414062 203.683594 36.285156 C 198.4375 36.15625 193.253906 36.019531 188.132812 35.878906 C 183.015625 35.734375 177.964844 35.585938 172.984375 35.429688 C 168.007812 35.273438 163.105469 35.113281 158.277344 34.945312 C 153.449219 34.777344 148.707031 34.601562 144.042969 34.421875 C 139.378906 34.242188 134.804688 34.054688 130.316406 33.863281 C 125.832031 33.671875 121.4375 33.472656 117.132812 33.269531 C 112.832031 33.066406 108.628906 32.859375 104.527344 32.644531 C 100.421875 32.429688 96.417969 32.210938 92.519531 31.984375 C 88.621094 31.761719 84.832031 31.53125 81.148438 31.296875 C 77.464844 31.066406 73.894531 30.824219 70.4375 30.582031 C 66.980469 30.339844 63.636719 30.09375 60.414062 29.839844 C 57.1875 29.589844 54.082031 29.332031 51.097656 29.074219 C 48.113281 28.8125 45.253906 28.550781 42.515625 28.28125 C 39.78125 28.015625 37.171875 27.746094 34.691406 27.472656 C 32.207031 27.199219 29.855469 26.921875 27.632812 26.640625 C 25.414062 26.363281 23.324219 26.078125 21.367188 25.792969 C 19.414062 25.507812 17.59375 25.222656 15.90625 24.933594 C 14.222656 24.644531 12.675781 24.351562 11.265625 24.058594 C 9.855469 23.761719 8.582031 23.46875 7.449219 23.171875 C 6.316406 22.875 5.324219 22.574219 4.472656 22.277344 C 3.621094 21.976562 2.910156 21.675781 2.34375 21.375 C 1.773438 21.074219 1.347656 20.773438 1.0625 20.46875 C 0.777344 20.167969 0.632812 19.863281 0.632812 19.5625 C 0.632812 19.257812 0.777344 18.957031 1.0625 18.652344 C 1.347656 18.351562 1.773438 18.050781 2.34375 17.75 C 2.910156 17.445312 3.621094 17.148438 4.472656 16.847656 C 5.324219 16.546875 6.316406 16.25 7.449219 15.953125 C 8.582031 15.65625 9.855469 15.359375 11.265625 15.066406 C 12.675781 14.773438 14.222656 14.480469 15.90625 14.191406 C 17.59375 13.902344 19.414062 13.613281 21.367188 13.328125 C 23.324219 13.042969 25.414062 12.761719 27.632812 12.480469 C 29.855469 12.203125 32.207031 11.925781 34.691406 11.652344 C 37.171875 11.378906 39.78125 11.109375 42.515625 10.839844 C 45.253906 10.574219 48.113281 10.308594 51.097656 10.050781 C 54.082031 9.789062 57.1875 9.535156 60.414062 9.285156 C 63.636719 9.03125 66.980469 8.785156 70.4375 8.539062 C 73.894531 8.296875 77.464844 8.058594 81.148438 7.824219 C 84.832031 7.589844 88.621094 7.363281 92.519531 7.136719 C 96.417969 6.914062 100.421875 6.695312 104.527344 6.480469 C 108.628906 6.265625 112.832031 6.058594 117.132812 5.855469 C 121.4375 5.648438 125.832031 5.453125 130.316406 5.261719 C 134.804688 5.070312 139.378906 4.882812 144.042969 4.703125 C 148.707031 4.519531 153.449219 4.347656 158.277344 4.179688 C 163.105469 4.011719 168.007812 3.847656 172.984375 3.691406 C 177.964844 3.539062 183.015625 3.386719 188.132812 3.246094 C 193.253906 3.101562 198.4375 2.964844 203.683594 2.835938 C 208.933594 2.707031 214.238281 2.585938 219.601562 2.46875 C 224.964844 2.351562 230.378906 2.246094 235.84375 2.140625 C 241.308594 2.039062 246.820312 1.945312 252.375 1.859375 C 257.929688 1.769531 263.523438 1.6875 269.15625 1.617188 C 274.785156 1.542969 280.449219 1.476562 286.140625 1.417969 C 291.835938 1.355469 297.554688 1.304688 303.296875 1.261719 C 309.039062 1.214844 314.796875 1.179688 320.574219 1.148438 C 326.351562 1.121094 332.140625 1.097656 337.9375 1.082031 C 343.734375 1.070312 349.539062 1.0625 355.34375 1.0625 C 361.148438 1.0625 366.949219 1.070312 372.746094 1.082031 C 378.546875 1.097656 384.332031 1.121094 390.109375 1.148438 C 395.886719 1.179688 401.648438 1.214844 407.390625 1.261719 C 413.132812 1.304688 418.847656 1.355469 424.542969 1.417969 C 430.234375 1.476562 435.898438 1.542969 441.53125 1.617188 C 447.160156 1.6875 452.753906 1.769531 458.308594 1.859375 C 463.863281 1.945312 469.375 2.039062 474.839844 2.140625 C 480.304688 2.246094 485.71875 2.351562 491.082031 2.46875 C 496.445312 2.585938 501.75 2.707031 507 2.835938 C 512.246094 2.964844 517.429688 3.101562 522.550781 3.246094 C 527.671875 3.386719 532.71875 3.539062 537.699219 3.691406 C 542.679688 3.847656 547.582031 4.011719 552.40625 4.179688 C 557.234375 4.347656 561.980469 4.519531 566.640625 4.703125 C 571.304688 4.882812 575.878906 5.070312 580.367188 5.261719 C 584.855469 5.453125 589.25 5.648438 593.550781 5.855469 C 597.851562 6.058594 602.054688 6.265625 606.160156 6.480469 C 610.261719 6.695312 614.265625 6.914062 618.164062 7.136719 C 622.0625 7.363281 625.851562 7.589844 629.535156 7.824219 C 633.21875 8.058594 636.789062 8.296875 640.246094 8.539062 C 643.703125 8.785156 647.046875 9.03125 650.269531 9.285156 C 653.496094 9.535156 656.601562 9.789062 659.585938 10.050781 C 662.570312 10.308594 665.429688 10.574219 668.167969 10.839844 C 670.902344 11.109375 673.511719 11.378906 675.996094 11.652344 C 678.476562 11.925781 680.828125 12.203125 683.050781 12.480469 C 685.269531 12.761719 687.359375 13.042969 689.316406 13.328125 C 691.269531 13.613281 693.089844 13.902344 694.777344 14.191406 C 696.460938 14.480469 698.007812 14.773438 699.421875 15.066406 C 700.832031 15.359375 702.101562 15.65625 703.234375 15.953125 C 704.367188 16.25 705.359375 16.546875 706.210938 16.847656 C 707.0625 17.148438 707.773438 17.445312 708.34375 17.75 C 708.910156 18.050781 709.339844 18.351562 709.625 18.652344 C 709.90625 18.957031 710.050781 19.257812 710.050781 19.5625 Z M 710.050781 19.5625 " fill-opacity="1" fill-rule="nonzero"/></g></g></g></g></g><g mask="url(#e96f1e0b24)"><g transform="matrix(1, 0, 0, 1, 641, 320)"><g clip-path="url(#d3e37a42b4)"><path fill="#202a44" d="M 591.785156 20.707031 C 591.785156 21.011719 591.667969 21.3125 591.429688 21.617188 C 591.195312 21.917969 590.839844 22.21875 590.363281 22.519531 C 589.890625 22.824219 589.296875 23.121094 588.589844 23.421875 C 587.878906 23.722656 587.054688 24.019531 586.109375 24.316406 C 585.167969 24.613281 584.109375 24.910156 582.933594 25.203125 C 581.757812 25.496094 580.46875 25.789062 579.066406 26.078125 C 577.660156 26.367188 576.144531 26.65625 574.515625 26.941406 C 572.886719 27.226562 571.148438 27.507812 569.296875 27.789062 C 567.445312 28.066406 565.488281 28.34375 563.421875 28.617188 C 561.355469 28.890625 559.179688 29.160156 556.902344 29.429688 C 554.621094 29.695312 552.238281 29.960938 549.753906 30.21875 C 547.269531 30.480469 544.679688 30.734375 541.996094 30.984375 C 539.308594 31.238281 536.527344 31.484375 533.644531 31.730469 C 530.765625 31.972656 527.792969 32.210938 524.722656 32.445312 C 521.65625 32.679688 518.5 32.90625 515.253906 33.132812 C 512.003906 33.355469 508.671875 33.574219 505.253906 33.789062 C 501.835938 34.003906 498.332031 34.210938 494.75 34.414062 C 491.167969 34.621094 487.507812 34.816406 483.769531 35.007812 C 480.03125 35.199219 476.222656 35.386719 472.339844 35.566406 C 468.453125 35.75 464.503906 35.921875 460.480469 36.089844 C 456.460938 36.257812 452.378906 36.421875 448.230469 36.578125 C 444.082031 36.730469 439.878906 36.882812 435.613281 37.023438 C 431.347656 37.167969 427.03125 37.304688 422.660156 37.433594 C 418.289062 37.5625 413.871094 37.683594 409.402344 37.800781 C 404.9375 37.917969 400.425781 38.023438 395.875 38.128906 C 391.320312 38.230469 386.730469 38.324219 382.105469 38.410156 C 377.476562 38.5 372.820312 38.582031 368.128906 38.652344 C 363.4375 38.726562 358.722656 38.792969 353.980469 38.851562 C 349.238281 38.910156 344.476562 38.964844 339.691406 39.007812 C 334.910156 39.050781 330.113281 39.089844 325.300781 39.121094 C 320.488281 39.148438 315.667969 39.171875 310.839844 39.1875 C 306.007812 39.199219 301.175781 39.207031 296.34375 39.207031 C 291.507812 39.207031 286.675781 39.199219 281.84375 39.1875 C 277.015625 39.171875 272.195312 39.148438 267.382812 39.121094 C 262.570312 39.089844 257.773438 39.054688 252.992188 39.007812 C 248.207031 38.964844 243.445312 38.914062 238.703125 38.851562 C 233.960938 38.792969 229.246094 38.726562 224.554688 38.652344 C 219.863281 38.582031 215.207031 38.5 210.578125 38.410156 C 205.953125 38.324219 201.363281 38.230469 196.808594 38.128906 C 192.257812 38.023438 187.746094 37.917969 183.28125 37.800781 C 178.8125 37.683594 174.394531 37.5625 170.023438 37.433594 C 165.652344 37.304688 161.335938 37.167969 157.070312 37.023438 C 152.804688 36.882812 148.601562 36.730469 144.453125 36.578125 C 140.304688 36.421875 136.222656 36.257812 132.203125 36.089844 C 128.183594 35.921875 124.230469 35.75 120.347656 35.566406 C 116.460938 35.386719 112.652344 35.199219 108.914062 35.007812 C 105.175781 34.816406 101.515625 34.621094 97.933594 34.414062 C 94.351562 34.210938 90.851562 34.003906 87.429688 33.789062 C 84.011719 33.574219 80.679688 33.355469 77.433594 33.132812 C 74.183594 32.90625 71.027344 32.679688 67.960938 32.445312 C 64.894531 32.210938 61.917969 31.972656 59.039062 31.730469 C 56.160156 31.484375 53.375 31.238281 50.6875 30.984375 C 48.003906 30.734375 45.417969 30.480469 42.929688 30.21875 C 40.445312 29.960938 38.0625 29.695312 35.785156 29.429688 C 33.503906 29.160156 31.332031 28.890625 29.261719 28.617188 C 27.195312 28.34375 25.238281 28.066406 23.386719 27.789062 C 21.535156 27.507812 19.796875 27.226562 18.167969 26.941406 C 16.539062 26.65625 15.023438 26.367188 13.621094 26.078125 C 12.214844 25.789062 10.925781 25.496094 9.75 25.203125 C 8.578125 24.910156 7.519531 24.613281 6.574219 24.316406 C 5.632812 24.019531 4.804688 23.722656 4.09375 23.421875 C 3.386719 23.121094 2.792969 22.824219 2.320312 22.519531 C 1.847656 22.21875 1.492188 21.917969 1.253906 21.617188 C 1.015625 21.3125 0.898438 21.011719 0.898438 20.707031 C 0.898438 20.40625 1.015625 20.101562 1.253906 19.800781 C 1.492188 19.496094 1.847656 19.195312 2.320312 18.894531 C 2.792969 18.59375 3.386719 18.292969 4.09375 17.992188 C 4.804688 17.695312 5.632812 17.394531 6.574219 17.097656 C 7.519531 16.800781 8.578125 16.507812 9.75 16.210938 C 10.925781 15.917969 12.214844 15.625 13.621094 15.335938 C 15.023438 15.046875 16.539062 14.761719 18.167969 14.476562 C 19.796875 14.191406 21.535156 13.90625 23.386719 13.628906 C 25.238281 13.347656 27.195312 13.070312 29.261719 12.796875 C 31.332031 12.523438 33.503906 12.253906 35.785156 11.988281 C 38.0625 11.71875 40.445312 11.457031 42.929688 11.195312 C 45.417969 10.9375 48.003906 10.679688 50.6875 10.429688 C 53.375 10.175781 56.160156 9.929688 59.039062 9.6875 C 61.917969 9.445312 64.894531 9.203125 67.960938 8.972656 C 71.027344 8.738281 74.183594 8.507812 77.433594 8.285156 C 80.679688 8.058594 84.011719 7.839844 87.429688 7.625 C 90.851562 7.410156 94.351562 7.203125 97.933594 7 C 101.515625 6.796875 105.175781 6.597656 108.914062 6.40625 C 112.652344 6.214844 116.460938 6.027344 120.347656 5.847656 C 124.230469 5.667969 128.183594 5.492188 132.203125 5.324219 C 136.222656 5.15625 140.304688 4.996094 144.453125 4.839844 C 148.601562 4.683594 152.804688 4.535156 157.070312 4.390625 C 161.335938 4.25 165.652344 4.113281 170.023438 3.984375 C 174.394531 3.855469 178.8125 3.730469 183.28125 3.613281 C 187.746094 3.5 192.257812 3.390625 196.808594 3.289062 C 201.363281 3.1875 205.953125 3.089844 210.578125 3.003906 C 215.207031 2.914062 219.863281 2.835938 224.554688 2.761719 C 229.246094 2.6875 233.960938 2.621094 238.703125 2.5625 C 243.445312 2.503906 248.207031 2.453125 252.992188 2.40625 C 257.773438 2.363281 262.570312 2.324219 267.382812 2.296875 C 272.195312 2.265625 277.015625 2.242188 281.84375 2.230469 C 286.675781 2.214844 291.507812 2.207031 296.34375 2.207031 C 301.175781 2.207031 306.007812 2.214844 310.839844 2.230469 C 315.667969 2.242188 320.488281 2.265625 325.300781 2.296875 C 330.113281 2.324219 334.910156 2.363281 339.691406 2.40625 C 344.476562 2.453125 349.238281 2.503906 353.980469 2.5625 C 358.722656 2.621094 363.4375 2.6875 368.128906 2.761719 C 372.820312 2.835938 377.476562 2.914062 382.105469 3.003906 C 386.730469 3.089844 391.320312 3.1875 395.875 3.289062 C 400.425781 3.390625 404.9375 3.5 409.402344 3.613281 C 413.871094 3.730469 418.289062 3.855469 422.660156 3.984375 C 427.03125 4.113281 431.347656 4.25 435.613281 4.390625 C 439.878906 4.535156 444.082031 4.683594 448.230469 4.839844 C 452.378906 4.996094 456.460938 5.15625 460.484375 5.324219 C 464.503906 5.492188 468.453125 5.667969 472.339844 5.847656 C 476.222656 6.027344 480.03125 6.214844 483.769531 6.40625 C 487.507812 6.597656 491.167969 6.796875 494.75 7 C 498.332031 7.203125 501.835938 7.410156 505.253906 7.625 C 508.671875 7.839844 512.003906 8.058594 515.253906 8.28125 C 518.5 8.507812 521.65625 8.738281 524.722656 8.972656 C 527.792969 9.203125 530.765625 9.445312 533.644531 9.6875 C 536.527344 9.929688 539.308594 10.175781 541.996094 10.429688 C 544.683594 10.679688 547.269531 10.9375 549.753906 11.195312 C 552.238281 11.457031 554.621094 11.71875 556.902344 11.988281 C 559.179688 12.253906 561.355469 12.523438 563.421875 12.796875 C 565.488281 13.070312 567.445312 13.347656 569.296875 13.628906 C 571.148438 13.90625 572.886719 14.191406 574.515625 14.476562 C 576.144531 14.761719 577.660156 15.046875 579.066406 15.335938 C 580.46875 15.625 581.757812 15.917969 582.933594 16.210938 C 584.109375 16.507812 585.167969 16.800781 586.109375 17.097656 C 587.054688 17.394531 587.878906 17.695312 588.589844 17.992188 C 589.296875 18.292969 589.890625 18.59375 590.363281 18.894531 C 590.839844 19.195312 591.195312 19.496094 591.429688 19.800781 C 591.667969 20.101562 591.785156 20.40625 591.785156 20.707031 Z M 591.785156 20.707031 " fill-opacity="1" fill-rule="nonzero"/></g></g></g><g mask="url(#09f74af1d3)"><g transform="matrix(1, 0, 0, 1, 699, 531)"><g clip-path="url(#d372a2d576)"><g clip-path="url(#ee5e6d72a3)"><path fill="#202a44" d="M 475.320312 20.835938 C 475.320312 21.136719 475.226562 21.441406 475.035156 21.742188 C 474.84375 22.042969 474.558594 22.347656 474.179688 22.648438 C 473.800781 22.949219 473.324219 23.25 472.757812 23.550781 C 472.1875 23.847656 471.523438 24.148438 470.765625 24.445312 C 470.011719 24.742188 469.160156 25.035156 468.21875 25.328125 C 467.277344 25.625 466.242188 25.914062 465.117188 26.203125 C 463.992188 26.496094 462.773438 26.78125 461.46875 27.066406 C 460.160156 27.351562 458.765625 27.632812 457.28125 27.914062 C 455.796875 28.195312 454.226562 28.472656 452.570312 28.746094 C 450.910156 29.019531 449.167969 29.289062 447.339844 29.554688 C 445.511719 29.824219 443.601562 30.085938 441.605469 30.347656 C 439.613281 30.605469 437.539062 30.863281 435.382812 31.113281 C 433.226562 31.363281 430.996094 31.613281 428.683594 31.855469 C 426.375 32.097656 423.988281 32.335938 421.53125 32.570312 C 419.070312 32.804688 416.535156 33.035156 413.933594 33.257812 C 411.328125 33.484375 408.652344 33.703125 405.910156 33.917969 C 403.167969 34.128906 400.359375 34.339844 397.488281 34.542969 C 394.613281 34.746094 391.679688 34.945312 388.679688 35.136719 C 385.683594 35.328125 382.625 35.515625 379.511719 35.695312 C 376.394531 35.875 373.226562 36.050781 370 36.21875 C 366.777344 36.386719 363.5 36.546875 360.171875 36.703125 C 356.847656 36.859375 353.472656 37.007812 350.054688 37.152344 C 346.632812 37.292969 343.167969 37.429688 339.664062 37.558594 C 336.15625 37.6875 332.613281 37.8125 329.03125 37.925781 C 325.445312 38.042969 321.828125 38.152344 318.179688 38.253906 C 314.527344 38.355469 310.84375 38.449219 307.132812 38.539062 C 303.421875 38.625 299.683594 38.707031 295.921875 38.78125 C 292.160156 38.855469 288.378906 38.921875 284.574219 38.980469 C 280.769531 39.039062 276.949219 39.089844 273.113281 39.136719 C 269.277344 39.179688 265.429688 39.214844 261.570312 39.246094 C 257.710938 39.277344 253.84375 39.296875 249.96875 39.3125 C 246.097656 39.328125 242.21875 39.335938 238.34375 39.335938 C 234.464844 39.335938 230.589844 39.328125 226.714844 39.3125 C 222.839844 39.296875 218.972656 39.277344 215.113281 39.246094 C 211.253906 39.214844 207.40625 39.179688 203.570312 39.136719 C 199.734375 39.089844 195.914062 39.039062 192.109375 38.980469 C 188.304688 38.921875 184.523438 38.855469 180.761719 38.78125 C 177 38.707031 173.261719 38.625 169.550781 38.539062 C 165.839844 38.449219 162.15625 38.355469 158.507812 38.253906 C 154.855469 38.152344 151.238281 38.042969 147.65625 37.925781 C 144.070312 37.8125 140.527344 37.6875 137.019531 37.558594 C 133.515625 37.429688 130.050781 37.292969 126.632812 37.152344 C 123.210938 37.007812 119.835938 36.859375 116.511719 36.703125 C 113.183594 36.546875 109.910156 36.386719 106.683594 36.21875 C 103.460938 36.050781 100.289062 35.875 97.175781 35.695312 C 94.058594 35.515625 91.003906 35.328125 88.003906 35.136719 C 85.007812 34.945312 82.070312 34.746094 79.195312 34.542969 C 76.324219 34.339844 73.515625 34.128906 70.773438 33.917969 C 68.03125 33.703125 65.355469 33.484375 62.753906 33.257812 C 60.148438 33.035156 57.617188 32.804688 55.15625 32.570312 C 52.695312 32.335938 50.308594 32.097656 48 31.855469 C 45.6875 31.613281 43.457031 31.363281 41.300781 31.113281 C 39.148438 30.863281 37.074219 30.605469 35.078125 30.347656 C 33.085938 30.085938 31.175781 29.824219 29.34375 29.554688 C 27.515625 29.289062 25.773438 29.019531 24.117188 28.746094 C 22.457031 28.472656 20.886719 28.195312 19.402344 27.914062 C 17.917969 27.632812 16.523438 27.351562 15.214844 27.066406 C 13.910156 26.78125 12.695312 26.496094 11.566406 26.203125 C 10.441406 25.914062 9.40625 25.625 8.464844 25.328125 C 7.523438 25.035156 6.671875 24.742188 5.917969 24.445312 C 5.160156 24.148438 4.496094 23.847656 3.929688 23.550781 C 3.359375 23.25 2.886719 22.949219 2.503906 22.648438 C 2.125 22.347656 1.839844 22.042969 1.648438 21.742188 C 1.457031 21.441406 1.363281 21.136719 1.363281 20.835938 C 1.363281 20.53125 1.457031 20.230469 1.648438 19.925781 C 1.839844 19.625 2.125 19.324219 2.503906 19.019531 C 2.886719 18.71875 3.359375 18.417969 3.929688 18.121094 C 4.496094 17.820312 5.160156 17.523438 5.917969 17.226562 C 6.671875 16.929688 7.523438 16.632812 8.464844 16.339844 C 9.40625 16.046875 10.441406 15.753906 11.566406 15.464844 C 12.695312 15.175781 13.910156 14.886719 15.214844 14.601562 C 16.523438 14.316406 17.917969 14.035156 19.402344 13.753906 C 20.886719 13.476562 22.457031 13.199219 24.117188 12.925781 C 25.773438 12.652344 27.515625 12.378906 29.34375 12.113281 C 31.175781 11.847656 33.085938 11.582031 35.078125 11.324219 C 37.074219 11.0625 39.148438 10.808594 41.300781 10.554688 C 43.457031 10.304688 45.6875 10.058594 48 9.8125 C 50.308594 9.570312 52.695312 9.332031 55.15625 9.097656 C 57.617188 8.863281 60.148438 8.632812 62.753906 8.410156 C 65.355469 8.1875 68.03125 7.964844 70.773438 7.753906 C 73.515625 7.539062 76.324219 7.328125 79.195312 7.125 C 82.070312 6.921875 85.007812 6.726562 88.003906 6.53125 C 91.003906 6.339844 94.058594 6.15625 97.175781 5.972656 C 100.289062 5.792969 103.460938 5.621094 106.683594 5.453125 C 109.910156 5.285156 113.183594 5.121094 116.511719 4.964844 C 119.835938 4.808594 123.210938 4.660156 126.632812 4.519531 C 130.050781 4.375 133.515625 4.238281 137.019531 4.109375 C 140.527344 3.980469 144.070312 3.859375 147.65625 3.742188 C 151.238281 3.625 154.855469 3.515625 158.507812 3.414062 C 162.15625 3.3125 165.839844 3.21875 169.550781 3.128906 C 173.261719 3.042969 177 2.960938 180.761719 2.886719 C 184.523438 2.816406 188.304688 2.75 192.109375 2.6875 C 195.914062 2.628906 199.734375 2.578125 203.570312 2.535156 C 207.40625 2.488281 211.253906 2.453125 215.113281 2.421875 C 218.972656 2.394531 222.839844 2.371094 226.714844 2.355469 C 230.589844 2.339844 234.464844 2.332031 238.34375 2.332031 C 242.21875 2.332031 246.097656 2.339844 249.96875 2.355469 C 253.84375 2.371094 257.710938 2.394531 261.570312 2.421875 C 265.429688 2.453125 269.277344 2.488281 273.113281 2.535156 C 276.949219 2.578125 280.769531 2.628906 284.574219 2.6875 C 288.378906 2.75 292.160156 2.816406 295.921875 2.886719 C 299.683594 2.960938 303.421875 3.042969 307.132812 3.128906 C 310.84375 3.21875 314.527344 3.3125 318.179688 3.414062 C 321.828125 3.515625 325.445312 3.625 329.03125 3.742188 C 332.613281 3.859375 336.15625 3.980469 339.664062 4.109375 C 343.167969 4.238281 346.632812 4.375 350.054688 4.519531 C 353.472656 4.660156 356.847656 4.808594 360.171875 4.964844 C 363.5 5.121094 366.777344 5.285156 370 5.453125 C 373.226562 5.621094 376.394531 5.792969 379.511719 5.972656 C 382.625 6.15625 385.683594 6.339844 388.679688 6.53125 C 391.679688 6.726562 394.613281 6.921875 397.488281 7.125 C 400.359375 7.328125 403.167969 7.539062 405.910156 7.753906 C 408.652344 7.964844 411.328125 8.1875 413.933594 8.410156 C 416.535156 8.632812 419.070312 8.863281 421.53125 9.097656 C 423.988281 9.332031 426.375 9.570312 428.683594 9.8125 C 430.996094 10.058594 433.226562 10.304688 435.382812 10.554688 C 437.539062 10.808594 439.613281 11.0625 441.605469 11.324219 C 443.597656 11.582031 445.511719 11.847656 447.339844 12.113281 C 449.167969 12.378906 450.910156 12.652344 452.570312 12.925781 C 454.226562 13.199219 455.796875 13.476562 457.28125 13.753906 C 458.765625 14.035156 460.160156 14.316406 461.46875 14.601562 C 462.773438 14.886719 463.992188 15.175781 465.117188 15.464844 C 466.242188 15.753906 467.277344 16.046875 468.21875 16.339844 C 469.160156 16.632812 470.011719 16.929688 470.765625 17.226562 C 471.523438 17.523438 472.1875 17.820312 472.757812 18.121094 C 473.324219 18.417969 473.800781 18.71875 474.179688 19.019531 C 474.558594 19.324219 474.84375 19.625 475.035156 19.925781 C 475.226562 20.230469 475.320312 20.53125 475.320312 20.835938 Z M 475.320312 20.835938 " fill-opacity="1" fill-rule="nonzero"/></g></g></g></g></svg>